<svg width="123" height="123" viewBox="0 0 123 123" fill="none" xmlns="http://www.w3.org/2000/svg">
<path fill-rule="evenodd" clip-rule="evenodd" d="M121.85 87.3C117.268 96.4727 110.56 104.417 102.284 110.47C94.0082 116.523 84.405 120.51 74.2754 122.098C64.1457 123.685 53.7833 122.828 44.0524 119.597C34.3215 116.366 25.5042 110.855 18.3359 103.524C11.1676 96.1926 5.85609 87.2537 2.84442 77.4527C-0.167248 67.6517 -0.791787 57.2726 1.02289 47.1812C2.83757 37.0898 7.03887 27.5785 13.2764 19.4408C19.5139 11.303 27.6067 4.77454 36.88 0.400005C39.82 -0.969995 42.8 1.31001 41.35 4.87001C35.2689 15.5022 32.8217 27.8278 34.3797 39.9767C35.9377 52.1257 41.4158 63.4349 49.983 72.1887C58.5501 80.9424 69.7387 86.6629 81.8512 88.4823C93.9638 90.3016 106.339 88.1206 117.1 82.27L117.59 82C118.235 81.6583 118.972 81.5323 119.693 81.6406C120.415 81.7489 121.083 82.0857 121.598 82.6016C122.114 83.1175 122.451 83.7852 122.559 84.5067C122.668 85.2282 122.542 85.9654 122.2 86.61L121.85 87.3V87.3ZM92.46 74.67H92C91.9053 70.5149 90.2084 66.5572 87.264 63.624C84.3195 60.6907 80.3554 59.0089 76.2 58.93V58.41C78.2586 58.4157 80.2966 57.9999 82.1884 57.1882C84.0802 56.3764 85.7857 55.1859 87.2 53.69C88.6907 52.2718 89.8778 50.5654 90.6892 48.6745C91.5005 46.7836 91.9193 44.7476 91.92 42.69H92.43C92.4266 44.7482 92.8435 46.7855 93.6551 48.677C94.4667 50.5684 95.656 52.2743 97.15 53.69C98.5657 55.184 100.272 56.3733 102.163 57.1849C104.054 57.9965 106.092 58.4134 108.15 58.41V58.92C104.014 59.0318 100.079 60.7288 97.1583 63.6603C94.238 66.5917 92.556 70.5333 92.46 74.67V74.67ZM102.55 28.08H102.28C102.285 26.9927 102.066 25.916 101.638 24.9165C101.21 23.9171 100.581 23.0163 99.79 22.27C99.046 21.4817 98.1484 20.8541 97.1526 20.4259C96.1569 19.9977 95.0839 19.7778 94 19.78V19.51C95.0854 19.5096 96.1592 19.2867 97.1551 18.8549C98.1509 18.4232 99.0477 17.7919 99.79 17C100.577 16.2526 101.203 15.3531 101.631 14.356C102.059 13.3589 102.28 12.2851 102.28 11.2H102.55C102.545 12.2822 102.759 13.3542 103.18 14.3512C103.602 15.3481 104.221 16.2492 105 17C105.749 17.7879 106.65 18.4151 107.649 18.8432C108.648 19.2713 109.723 19.4914 110.81 19.49V19.76C109.722 19.7612 108.645 19.9844 107.646 20.416C106.647 20.8476 105.747 21.4785 105 22.27C104.209 23.0163 103.58 23.9171 103.152 24.9165C102.724 25.916 102.505 26.9927 102.51 28.08H102.55ZM61.05 36.08H60.64C60.647 34.4294 60.3152 32.795 59.665 31.2779C59.0148 29.7607 58.0601 28.3932 56.86 27.26C55.7204 26.0586 54.3457 25.1047 52.8213 24.4578C51.297 23.8109 49.6558 23.4849 48 23.5V23.09C49.6505 23.0965 51.2847 22.7643 52.8018 22.1142C54.3188 21.464 55.6864 20.5096 56.82 19.31C58.0187 18.1757 58.9724 16.808 59.6225 15.2911C60.2726 13.7742 60.6053 12.1403 60.6 10.49H61.01C61.0028 12.1397 61.3337 13.7733 61.9821 15.2902C62.6304 16.8071 63.5827 18.1752 64.78 19.31C65.9155 20.5099 67.2848 21.4644 68.8035 22.1145C70.3222 22.7646 71.958 23.0966 73.61 23.09V23.5C71.958 23.4934 70.3222 23.8254 68.8035 24.4755C67.2848 25.1256 65.9155 26.0801 64.78 27.28C63.5827 28.4148 62.6304 29.7829 61.9821 31.2998C61.3337 32.8167 61.0028 34.4503 61.01 36.1L61.05 36.08Z" fill="white"/>
</svg>
