<?xml version="1.0" encoding="utf-8"?>
<!-- Generator: Adobe Illustrator 26.5.2, SVG Export Plug-In . SVG Version: 6.00 Build 0)  -->
<svg version="1.1" id="Layer_1" xmlns="http://www.w3.org/2000/svg" xmlns:xlink="http://www.w3.org/1999/xlink" x="0px" y="0px"
	 viewBox="0 0 223 223" style="enable-background:new 0 0 223 223;" xml:space="preserve">
<style type="text/css">
	.st0{fill:#0A66C2;}
	.st1{fill:#FFFFFF;}
</style>
<g>
	<path class="st0" d="M172.64,223H50.36C22.55,223,0,200.46,0,172.65V50.35C0,22.54,22.55,0,50.36,0h122.29
		c27.81,0,50.35,22.54,50.35,50.35v122.29C222.99,200.46,200.45,223,172.64,223z"/>
	<g>
		<path class="st1" d="M43.32,55.88c-0.86,0-1.7,0.08-2.5,0.24l71.26,57.58l71.26-57.58c-0.8-0.16-1.64-0.24-2.5-0.24H43.32z"/>
		<path class="st1" d="M132.4,111.24l59.55,48.05c0.46-1.1,0.83-2.43,0.83-3.89V67.08c0-1.27-0.28-2.53-0.86-3.87L132.4,111.24z"/>
		<path class="st1" d="M32.53,155.4c0,1.44,0.15,2.67,0.46,3.76l59.15-47.92L33.02,63.33c-0.32,1.12-0.48,2.37-0.48,3.75
			L32.53,155.4L32.53,155.4z"/>
		<path class="st1" d="M108.69,125.06l-8.3-6.8l-59.75,48.48c0.89,0.24,1.79,0.37,2.68,0.37h137.51c0.89,0,1.8-0.12,2.68-0.37
			l-59.75-48.48l-8.21,6.72c-0.02,0.01-0.03,0.03-0.05,0.04c-1.02,0.77-2.11,1.12-3.43,1.12
			C110.78,126.15,109.67,125.79,108.69,125.06z"/>
	</g>
</g>
</svg>
