<?xml version="1.0" encoding="utf-8"?>
<!-- Generator: Adobe Illustrator 27.3.1, SVG Export Plug-In . SVG Version: 6.00 Build 0)  -->
<svg version="1.1" id="Layer_1" xmlns="http://www.w3.org/2000/svg" xmlns:xlink="http://www.w3.org/1999/xlink" x="0px" y="0px"
	 viewBox="0 0 223 223" style="enable-background:new 0 0 223 223;" xml:space="preserve">
<style type="text/css">
	.st0{fill:#FD4500;}
	.st1{fill:#FFFFFF;}
</style>
<path class="st0" d="M172.6,223H50.4C22.5,223,0,200.5,0,172.6L0,50.4C0,22.5,22.5,0,50.4,0l122.3,0C200.5,0,223,22.5,223,50.4
	v122.3C223,200.5,200.5,223,172.6,223z"/>
<g>
	<g>
		<path class="st1" d="M185.8,111.5c0-9-7.3-16.3-16.3-16.3c-4.4,0-8.4,1.7-11.3,4.6c-11.1-8-26.4-13.2-43.5-13.8l7.4-34.8l24.2,5.1
			c0.3,6.2,5.3,11.1,11.6,11.1c6.4,0,11.6-5.2,11.6-11.6s-5.2-11.6-11.6-11.6c-4.6,0-8.5,2.7-10.4,6.5l-27-5.7
			c-0.8-0.2-1.5,0-2.2,0.4c-0.6,0.4-1.1,1.1-1.3,1.8L108.9,86C91.5,86.5,76,91.7,64.7,99.8c-2.9-2.8-6.9-4.5-11.2-4.5
			c-9,0-16.3,7.3-16.3,16.3c0,6.6,3.9,12.3,9.6,14.8c-0.3,1.6-0.4,3.3-0.4,4.9c0,25,29.1,45.3,65,45.3c35.9,0,65-20.3,65-45.3
			c0-1.7-0.1-3.3-0.4-4.9C181.8,123.8,185.8,118.1,185.8,111.5z M74.3,123.1c0-6.4,5.2-11.6,11.6-11.6c6.4,0,11.6,5.2,11.6,11.6
			c0,6.4-5.2,11.6-11.6,11.6C79.5,134.7,74.3,129.5,74.3,123.1z M139.1,153.8c-7.9,7.9-23.1,8.5-27.6,8.5c-4.5,0-19.7-0.6-27.6-8.5
			c-1.2-1.2-1.2-3.1,0-4.3c1.2-1.2,3.1-1.2,4.3,0c5,5,15.7,6.8,23.3,6.8c7.6,0,18.3-1.8,23.3-6.8c1.2-1.2,3.1-1.2,4.3,0
			C140.3,150.7,140.3,152.6,139.1,153.8z M137.1,134.7c-6.4,0-11.6-5.2-11.6-11.6c0-6.4,5.2-11.6,11.6-11.6
			c6.4,0,11.6,5.2,11.6,11.6C148.7,129.5,143.5,134.7,137.1,134.7z"/>
	</g>
</g>
</svg>
