<?xml version="1.0" encoding="utf-8"?>
<!-- Generator: Adobe Illustrator 26.5.2, SVG Export Plug-In . SVG Version: 6.00 Build 0)  -->
<svg version="1.1" id="Layer_1" xmlns="http://www.w3.org/2000/svg" xmlns:xlink="http://www.w3.org/1999/xlink" x="0px" y="0px"
	 viewBox="0 0 223 223" style="enable-background:new 0 0 223 223;" xml:space="preserve">
<style type="text/css">
	.st0{fill:#0A66C2;}
	.st1{fill:#FFFFFF;}
</style>
<g>
	<path class="st0" d="M172.65,223H50.36c-27.81,0-50.35-22.54-50.35-50.35V50.35C0.01,22.54,22.55,0,50.36,0h122.29
		c27.81,0,50.35,22.54,50.35,50.35v122.29C223.01,200.46,200.47,223,172.65,223z"/>
	<g>
		<path class="st1" d="M189.33,189.43h-32.82v-51.39c0-12.25-0.22-28.03-17.07-28.03c-17.09,0-19.71,13.35-19.71,27.14v52.28h-32.8
			V83.75h31.5v14.44h0.44c6.42-10.98,18.37-17.54,31.08-17.07c33.26,0,39.39,21.88,39.39,50.34L189.33,189.43z M49.9,69.31
			c-10.52,0-19.04-8.52-19.05-19.04c0-10.52,8.52-19.05,19.04-19.05s19.04,8.52,19.05,19.04c0,5.05-2,9.89-5.58,13.47
			C59.79,67.29,54.95,69.31,49.9,69.31 M66.31,189.43H33.46V83.74h32.85V189.43z"/>
	</g>
</g>
</svg>
