<?xml version="1.0" encoding="utf-8"?>
<!-- Generator: Adobe Illustrator 26.5.2, SVG Export Plug-In . SVG Version: 6.00 Build 0)  -->
<svg version="1.1" id="Layer_1" xmlns="http://www.w3.org/2000/svg" xmlns:xlink="http://www.w3.org/1999/xlink" x="0px" y="0px"
	 viewBox="0 0 223 223" style="enable-background:new 0 0 223 223;" xml:space="preserve">
<style type="text/css">
	.st0{fill:#40E85E;}
	.st1{fill:#FFFFFF;}
</style>
<g>
	<path class="st0" d="M172.65,223H50.35C22.54,223,0,200.46,0,172.65V50.35C0,22.54,22.54,0,50.35,0h122.29
		C200.46,0,223,22.54,223,50.35v122.29C223,200.46,200.46,223,172.65,223z"/>
	<path class="st1" d="M178.53,143.72c-5.93-6.08-12.2-12.28-18.63-18.41c-6.76-6.45-13.65-6.37-20.48,0.23
		c-1.85,1.79-3.69,3.63-5.47,5.4c-1.5,1.5-2.99,2.99-4.51,4.47c-0.48,0.47-0.76,0.64-0.87,0.7c-0.1-0.03-0.33-0.11-0.73-0.34
		c-17.91-10.46-31.03-23.53-40.09-39.95c-0.56-1.02-0.75-1.5-0.81-1.72c0.12-0.2,0.45-0.64,1.33-1.54c0.86-0.88,1.73-1.75,2.59-2.62
		c2.64-2.65,5.36-5.39,7.86-8.35c4.76-5.66,4.62-12.94-0.37-18.13c-7-7.28-13.57-13.85-20.09-20.08c-5.41-5.18-12.59-5.29-18.3-0.27
		c-4.33,3.8-8.51,7.77-12.44,11.79c-7.25,7.42-9.63,16.61-6.89,26.56c4.8,17.43,12.72,33.31,23.55,47.19
		c17.98,23.03,38,38.77,61.21,48.13c8.7,3.51,16.16,6,24.31,6.79c0.08,0.01,0.17,0.01,0.25,0.02c0.18,0.01,0.36,0.01,0.54,0.01
		c3.79,0,7.48-1.13,11.25-3.46c5.79-3.57,10.17-8.41,14.4-13.09c0.85-0.94,1.71-1.89,2.57-2.82
		C185.12,157.31,185.06,150.41,178.53,143.72z"/>
</g>
</svg>
