<?xml version="1.0" encoding="UTF-8"?>
<svg id="Layer_2" data-name="Layer 2" xmlns="http://www.w3.org/2000/svg" viewBox="0 0 323.69 324.15">
  <defs>
    <style>
      .cls-1 {
        stroke: #303030;
      }

      .cls-1, .cls-2, .cls-3, .cls-4, .cls-5, .cls-6, .cls-7, .cls-8, .cls-9, .cls-10, .cls-11 {
        fill: none;
        stroke-width: 2px;
      }

      .cls-2 {
        stroke: #7c7b7a;
      }

      .cls-3 {
        stroke: #919ea5;
      }

      .cls-4 {
        stroke: #0b171f;
      }

      .cls-5 {
        stroke: #424e55;
      }

      .cls-6 {
        stroke: #121e26;
      }

      .cls-7 {
        stroke: #cbcbca;
      }

      .cls-8 {
        stroke: gray;
      }

      .cls-9 {
        stroke: #4c4c4b;
      }

      .cls-10 {
        stroke: #5d6a70;
      }

      .cls-11 {
        stroke: #b0afaf;
      }

      .cls-12, .cls-13, .cls-14, .cls-15, .cls-16 {
        stroke-width: 0px;
      }

      .cls-13 {
        fill: #605f5f;
      }

      .cls-14 {
        fill: #152e3d;
      }

      .cls-15 {
        fill: #979795;
      }

      .cls-16 {
        fill: #fff;
      }
    </style>
  </defs>
  <g id="Layer_1-2" data-name="Layer 1">
    <g>
      <path class="cls-4" d="m322.69,214.61c-.27-1.57-.39-3.16-.37-4.76.23-18.42-.09-36.83-.07-55.25.03-23.47.68-46.83.08-70.31-.62-23.87-4.39-44.99-21.85-62.26-.21-.21-.38-.18-.51.09l-.38.87c-.15.35-.41.59-.76.74-2.05.83-2.6-.7-2.73-2.42-.19-2.56-1.44-4.61-3.76-6.15C264.96-3,227.27,2.05,194.76,1c-.55-.02-1.02.4-1.06.95-.17,1.99-.05,3.92.35,5.79.2.92-.03,1.57-.75,2.09-.22.17-.53.12-.7-.1-.06-.09-.1-.19-.1-.3l-.05-7.38c0-.46-.23-.69-.69-.69-32.97-.07-65.94,0-98.91.22-18.76.12-38.05,1.31-55.19,9.8-.33.16-.46.56-.3.89l2.87,5.75c.15.29.21.6.17.93-.21,1.95-.95,3.68-2.22,5.21-.31.37-.85.42-1.22.12-.21-.18-.33-.44-.32-.72l.25-5.55c.01-.22-.08-.44-.24-.59l-3.19-2.97c-.31-.29-.63-.31-.98-.07C1.67,35.84,1.27,66.7,1.14,100.1c-.18,43.31-.19,86.63-.02,129.94.02,6.3.51,15.35,1.46,27.14,2.34,28.86,18.63,51.29,46.34,60.73.92.31,1.43-.01,1.53-.98.19-1.82.99-3.24,2.42-4.26.25-.18.6-.12.78.13.09.12.12.27.1.41l-.67,4.38c-.04.27.06.45.3.56,4.03,1.8,8.2,2.85,12.53,3.16" vector-effect="non-scaling-stroke"/>
      <path class="cls-6" d="m322.69,214.61c-.21,7.11-.32,14.22-.33,21.34-.05,31.5-6.2,59.65-35.07,76.61-9.35,5.5-21.02,7.82-31.88,8.81-12.51,1.13-25.6,1.72-39.25,1.77-1.09,0-1.69-.56-1.79-1.69" vector-effect="non-scaling-stroke"/>
      <path class="cls-1" d="m214.37,321.45c-2.42-5.42-3.93-11.17-4.52-17.26-.06-.58-.25-1.04-.57-1.39-.18-.2-.49-.21-.7-.02-.08.08-.14.19-.15.3l-.5,4.42c-.02.2.02.39.1.56,1.37,2.59,2.87,4.54,3.09,7.59.16,2.16.35,4.31.58,6.45" vector-effect="non-scaling-stroke"/>
      <path class="cls-6" d="m211.7,322.1c-.5.37-1.15.81-1.81.83-9.75.23-19.49.2-29.23-.09-.36-.01-.66-.29-.69-.65l-.2-2.09c-.03-.17-.19-.3-.36-.27-.13.02-.24.12-.27.25l-.37,2.16c-.09.52-.4.78-.93.78h-32.67c-.37,0-.53-.18-.5-.55l.2-2.12" vector-effect="non-scaling-stroke"/>
      <path class="cls-1" d="m144.87,320.35c.19-2.18,1.03-4,2.51-5.46,3.25-3.2,2.97-8.15,3.33-12.26.03-.33.14-.64.33-.91.79-1.14,1.14-2.42,1.07-3.85-.02-.33-.19-.44-.5-.33l-1.26.47c-.34.13-.54.48-.46.83.25,1.11-.01,2.09-.8,2.93-.21.23-.46.38-.76.46-2.94.78-1.01,3.93-.15,5.47.16.29.14.64-.05.91-2.24,3.14-1.83,6.74-5.25,10.19" vector-effect="non-scaling-stroke"/>
      <path class="cls-6" d="m142.88,318.8c-.59.12-1.12.38-1.61.77-.32.26-.51.19-.58-.22l-.43-2.6" vector-effect="non-scaling-stroke"/>
      <path class="cls-9" d="m140.26,316.75c.98-2.61,2.46-4.3,2.82-7.14.18-1.41.38-2.83.59-4.28" vector-effect="non-scaling-stroke"/>
      <path class="cls-8" d="m143.67,305.33c.69-.47.93-1.29.74-2.44" vector-effect="non-scaling-stroke"/>
      <path class="cls-9" d="m144.41,302.89h.35c.36-.02.51-.21.46-.56-.48-3.25.08-6.17,1.68-8.77" vector-effect="non-scaling-stroke"/>
      <path class="cls-1" d="m146.9,293.56c-.41-2.02-.07-3.58,1.01-4.67" vector-effect="non-scaling-stroke"/>
      <path class="cls-9" d="m147.91,288.89c1.71-1.01,1.87-2.37.5-4.08" vector-effect="non-scaling-stroke"/>
      <path class="cls-1" d="m148.41,284.81c-.57-1.55-.32-2.85.73-3.92.24-.25.35-.54.32-.88-.25-3.46.8-6.46,3.13-8.99.21-.22.46-.37.75-.44,1.09-.27,2.02-.8,2.8-1.57.54-.54.54-1.41,0-1.95-.11-.11-.24-.2-.38-.27-.67-.31-1.17-.29-1.52.08-.31.33-.61.32-.9-.03-.66-.79-.85-1.7-.57-2.74" vector-effect="non-scaling-stroke"/>
      <path class="cls-9" d="m152.77,264.1c1.54-1.69,2.02-3.85,1.43-6.5" vector-effect="non-scaling-stroke"/>
      <path class="cls-1" d="m154.2,257.6c1.79-4.54,2.62-9.27,2.49-14.19-.02-.63-.24-.71-.66-.25-.46.5-.74,1.09-.84,1.76-.16,1.13-.71,1.37-1.65.73-2.49-1.69-.14-4.29,1.37-5.59" vector-effect="non-scaling-stroke"/>
      <path class="cls-9" d="m154.91,240.06c2.8,1.33,3.48-2.36,4.24-4.17.13-.3.12-.59-.03-.88-1.24-2.49-1.18-4.91.18-7.26.19-.34.45-.62.78-.83.71-.47,1.2-1.12,1.46-1.95.33-1.07-.14-2.22-1.12-2.75-1.77-.95-3.05-.25-3.82,2.11-1.23,3.79-1.07,7.52.5,11.2.14.34.08.64-.19.89l-2.29,2.18" vector-effect="non-scaling-stroke"/>
      <path class="cls-1" d="m154.62,238.6l-3.99,3.53c-.24.21-.29.46-.15.75,1.59,3.25,1.74,6.64.43,10.18" vector-effect="non-scaling-stroke"/>
      <path class="cls-9" d="m150.91,253.06c-1.55,2.09-2.11,4.43-1.68,7.02.05.34.01.69-.11,1.01-.79,1.99-.77,4,.08,6.01" vector-effect="non-scaling-stroke"/>
      <path class="cls-1" d="m149.2,267.1l.21,2.99c.02.29-.07.57-.26.79l-3.27,3.87c-.1.12-.16.28-.15.43l.22,4.41c.02.47-.2.68-.67.61l-1.75-.24c-.35-.05-.67.18-.74.52l-.62,2.94c-.03.12-.08.22-.16.31-.43.46-.78.96-1.05,1.51-.15.31-.13.62.05.91,1.41,2.25,1.56,4.65.44,7.2" vector-effect="non-scaling-stroke"/>
      <path class="cls-9" d="m141.45,293.35c-.81,2.39-1,4.8-.57,7.22.05.28-.06.43-.35.46l-1.91.19c-.36.03-.62.21-.78.54-1.46,2.98-.93,6.05-1.47,8.76-.53,2.66-.87,5.35-1,8.08" vector-effect="non-scaling-stroke"/>
      <path class="cls-6" d="m135.37,318.6c-.6,1.86-.43,4.68-3.27,4.49-.85-.06-1.31-.09-1.39-.09-21.63.44-43.23-.12-64.8-1.69" vector-effect="non-scaling-stroke"/>
      <path class="cls-9" d="m240.91,8.4c.67-1.83.18-2.99-1.47-3.48-.33-.1-.62-.28-.86-.54-1.14-1.26-2.75-1.81-4.82-1.66-.35.04-.59.35-.55.7.03.29.26.51.54.55l2.06.2c.28.03.5.15.67.38,1,1.38,1.38,4.39,3.46,4.49.43.03.82-.23.97-.64" vector-effect="non-scaling-stroke"/>
      <path class="cls-1" d="m203.56,9.34l-1.13-.61c-.19-.1-.43-.03-.54.16l-2.12,3.89c-.55,1.01-.59,2.05-.09,2.33,0,0,0,0,0,0h0c.5.28,1.36-.32,1.91-1.33,0,0,0,0,0,0l2.13-3.9c.1-.19.03-.43-.16-.54" vector-effect="non-scaling-stroke"/>
      <path class="cls-1" d="m187.24,36.37c2.04,3.19,1.94,6.48-.31,9.86-.16.24-.1.57.14.73.04.02.08.04.12.06l1.79.62c.12.05.23.13.3.24l.59.97" vector-effect="non-scaling-stroke"/>
      <path class="cls-9" d="m189.87,48.85c1.36,1.74,1.67,3.58.92,5.51-.06.12,0,.26.11.32.09.05.21.03.28-.05l2.54-2.27c.28-.25.39-.56.34-.93-.49-3.44,3.88-4.89,6.52-4.52.34.05.58.35.56.69-.17,2.66-1.75,6.94-.4,9.19.53.87,1.67,1.15,2.54.62.57-.35.91-.98.89-1.65-.02-.53-.18-.89-.49-1.08-1.07-.66-1.37-2.09-.69-3.21,0,0,0,0,0-.01,1.89-3.03,1.75-5.86-.44-8.5-.25-.31-.57-.39-.94-.24-4.52,1.77-5.87,4.45-11.17,2.63" vector-effect="non-scaling-stroke"/>
      <path class="cls-1" d="m190.45,45.35c-1.27-1.49-1.45-3.19-.53-5.08" vector-effect="non-scaling-stroke"/>
      <path class="cls-9" d="m189.92,40.27l4.41,1.31c.56.17,1.14-.15,1.31-.71.02-.05.03-.1.03-.15.05-.35-.02-.72-.22-1.12" vector-effect="non-scaling-stroke"/>
      <path class="cls-1" d="m195.45,39.6c.31-1.67,1.33-2.67,3.05-3,.3-.06.6.11.71.4l.89,2.29c.33.84.56.81.68-.09.51-3.72-1.98-4.8-2.93-7.15-.61-1.52-.43-4.95-1.02-5.71-.33-.43-.82-.58-1.48-.47-.4.07-.68.42-.65.83.11,1.51.47,2.97,1.09,4.37.14.31.2.63.19.96-.04,1.43-.69,2.5-1.95,3.23" vector-effect="non-scaling-stroke"/>
      <path class="cls-9" d="m194.03,35.26c-1.89-3.68-5.03-10.01-1.36-13.04.27-.23.46-.54.52-.9l.58-3.26c.06-.35.21-.65.45-.9.41-.43.93-.61,1.56-.55.72.07.81-.13.27-.61l-3.48-3.09c-.19-.17-.48-.16-.65.03-.08.08-.12.2-.12.31l-.11,6.72c0,.33-.11.63-.32.88-3.02,3.68-2,6.31-1.7,10.61.05.78-.4,1.51-1.13,1.82-1.77.73-2.2,1.76-1.3,3.09" vector-effect="non-scaling-stroke"/>
      <path class="cls-2" d="m194.03,35.26l1.42,4.34" vector-effect="non-scaling-stroke"/>
      <path class="cls-2" d="m189.92,40.27c-.42-.75-.19-1.3.69-1.63.3-.11.41-.32.32-.63-.67-2.39-1.9-2.93-3.69-1.64" vector-effect="non-scaling-stroke"/>
      <path class="cls-2" d="m190.45,45.35c-.61,1.06-.8,2.23-.58,3.5" vector-effect="non-scaling-stroke"/>
      <path class="cls-9" d="m245.82,16.62c.73-.04,1.41-.64,1.51-1.35.09-.64-.32-1.16-.97-1.21-.77-.05-1.45-.37-2.04-.97-.32-.33-.85-.32-1.17,0-.26.27-.32.68-.14,1,.99,1.71,1.92,2.55,2.81,2.52" vector-effect="non-scaling-stroke"/>
      <path class="cls-1" d="m219.14,17.8c.55-.13.84-.96.64-1.86-.2-.9-.82-1.53-1.37-1.4s-.84.96-.64,1.86c.2.9.82,1.53,1.37,1.4" vector-effect="non-scaling-stroke"/>
      <path class="cls-1" d="m81.62,19.68l1.87-3.78c.04-.07,0-.15-.06-.19,0,0,0,0,0,0h-.02c-.9-.46-2.05.03-2.57,1.07,0,0,0,0,0,0l-.12.25c-.51,1.04-.2,2.25.7,2.69h.02c.07.04.14.01.18-.05" vector-effect="non-scaling-stroke"/>
      <path class="cls-9" d="m251.17,24.37l1.26-1.08c.28-.24.31-.65.08-.93,0,0,0,0,0,0l-.12-.13c-2.02-2.35-4.14-3.85-4.74-3.36l-.12.11c-.58.51.58,2.83,2.61,5.19l.11.14c.24.28.65.31.93.07" vector-effect="non-scaling-stroke"/>
      <path class="cls-9" d="m282.14,27.17c.54.25,1.25-.13,1.58-.85h0c.33-.72.15-1.5-.39-1.75h0c-.54-.25-1.25.13-1.58.85,0,0,0,0,0,0-.33.72-.15,1.5.39,1.75h0" vector-effect="non-scaling-stroke"/>
      <path class="cls-9" d="m57.98,34.78s.02.03.04.03c.53.02.98-.09,1.34-.34.46-.32,1.93-4.6,2.65-5.64.44-.66.26-1.54-.4-1.98-.45-.3-1.02-.32-1.49-.06-.87.51-1.78.79-2.73.83-.32.02-.57.28-.55.6,0,.03,0,.07.01.1.44,1.9.82,4.05,1.13,6.46" vector-effect="non-scaling-stroke"/>
      <path class="cls-1" d="m107.27,37.33c1.72-.37,4.38-.92,3.15-3.43-.13-.27-.37-.47-.66-.55l-3.5-.99c-.45-.13-.79-.39-1.03-.79-.21-.35-.5-.51-.88-.47-.39.04-.69.37-.69.76v1.98c0,.28-.1.55-.27.77-1.45,1.83-1.31,3.37.43,4.6.39.28.56.77.42,1.22l-1.49,5.13c-.06.2.06.41.26.47.04.01.09.02.14.02,5.31-.31,3.55-4.71,3.57-8.05,0-.37.18-.6.55-.67" vector-effect="non-scaling-stroke"/>
      <path class="cls-1" d="m278.81,34.31c.09-.12.05-.29-.07-.38l-.25-.17c-.12-.09-.29-.05-.38.07l-7.61,10.95c-.09.12-.05.29.07.38l.25.17c.12.09.29.05.38-.07l7.61-10.95" vector-effect="non-scaling-stroke"/>
      <path class="cls-1" d="m222.91,53.39c.42,1.75,1.47,2.67,3.14,2.76.37.02.53-.15.5-.51-.15-1.64-.76-3.07-1.85-4.29" vector-effect="non-scaling-stroke"/>
      <path class="cls-9" d="m224.7,51.35c-.69-.91-1.61-1.22-2.78-.93-.36.1-.74-.04-.96-.35l-1.42-2.01c-.14-.2-.41-.27-.63-.15-1.58.85-2.35,2.15-2.3,3.91,0,.24.2.42.44.42.2,0,.37-.14.41-.34.21-.94.66-1.43,1.36-1.47.44-.03.94.2,1.5.67.89.75,1.76,1.51,2.59,2.29" vector-effect="non-scaling-stroke"/>
      <path class="cls-2" d="m224.7,51.35c-.21,1.02-.81,1.7-1.79,2.04" vector-effect="non-scaling-stroke"/>
      <path class="cls-1" d="m267.94,50.15c.13-.19.07-.44-.11-.57t0,0h-.02c-.19-.14-.44-.09-.57.1h0s-9.18,13.76-9.18,13.76c-.13.19-.07.44.11.57h0s.02.01.02.01c.19.13.44.07.57-.11h0s9.18-13.76,9.18-13.76" vector-effect="non-scaling-stroke"/>
      <path class="cls-1" d="m85.34,53.63l-2.01-1.43c-.23-.16-.47-.18-.72-.07l-5.15,2.25c-.25.11-.24.18.02.21,2.09.27,5.79.02,7.75-.39.47-.11.5-.3.11-.57" vector-effect="non-scaling-stroke"/>
      <path class="cls-9" d="m186.91,75.31c-.36.9-1.02,1.47-1.97,1.72-.43.11-.69.55-.58.99,0,0,0,0,0,.01l.46,1.75c.06.23.29.37.52.31.14-.04.25-.14.3-.27l1.77-4.43" vector-effect="non-scaling-stroke"/>
      <path class="cls-8" d="m187.41,75.39l.56-7.53c.03-.42-.15-.72-.54-.89l-1.08-.47c-.31-.13-.46-.49-.33-.8.05-.12.13-.22.24-.28,1.54-.97,3.15-1.12,4.84-.43.35.14.62.37.82.68l1.74,2.72" vector-effect="non-scaling-stroke"/>
      <path class="cls-9" d="m193.66,68.39c2.15,2.29,1.65,3.43,2.33,6.22.12.49.28.51.49.05,1.28-2.89,3.66-5.39,3.65-8.63,0-.07-.01-.11-.03-.12-.09-.03-.17-.05-.26-.08-.02,0-.04.03-.05.1l-.56,2.68c-.08.39-.3.65-.67.79-1.75.69-3.21.18-4.36-1.55" vector-effect="non-scaling-stroke"/>
      <path class="cls-8" d="m194.2,67.85c-.57-1.11-.84-2.34-.83-3.71,0-.3-.21-.57-.51-.61-3.76-.6-8.98-2.87-4.69-7.49.35-.38.27-.61-.24-.69-1.56-.26-2.56-1.19-2.99-2.78-.07-.25-.33-.39-.58-.32-.15.04-.27.16-.31.3-.29.95-.11,1.79.52,2.53.21.24.32.52.33.85l.42,9.83c.01.33-.08.62-.29.88-1.31,1.64.21,3.92.39,5.9.03.31.18.56.45.73.69.45,1.04,1.13,1.04,2.04" vector-effect="non-scaling-stroke"/>
      <path class="cls-7" d="m194.2,67.85l-.54.54" vector-effect="non-scaling-stroke"/>
      <path class="cls-7" d="m187.41,75.39l-.5-.08" vector-effect="non-scaling-stroke"/>
      <path class="cls-9" d="m220.01,58.52l.39-1.26c.11-.33.04-.63-.21-.88l-2.61-2.6c-.27-.27-.39-.22-.36.16.11,1.73.63,3.32,1.54,4.75.21.32.64.42.96.21.14-.09.24-.22.29-.38" vector-effect="non-scaling-stroke"/>
      <path class="cls-8" d="m194.16,59.48l5.4,1.43c.28.07.46-.03.54-.31.66-2.34-.99-2.48-2.69-2.54" vector-effect="non-scaling-stroke"/>
      <path class="cls-1" d="m197.41,58.06c-5.31-.29-6.39.18-3.25,1.42" vector-effect="non-scaling-stroke"/>
      <path class="cls-11" d="m197.41,58.06c-1.79-.35-2.88.13-3.25,1.42" vector-effect="non-scaling-stroke"/>
      <path class="cls-8" d="m226.01,69.14c.29-.38.36-.8.19-1.25-1.03-2.73-1.38-5.72-1.06-8.98.06-.62-.11-.99-.5-1.12-.25-.08-.51.05-.6.29-.01.03-.02.07-.02.11-.35,3.76-.2,7.48.46,11.16.07.35.41.58.76.52.15-.03.29-.11.39-.24l.38-.49" vector-effect="non-scaling-stroke"/>
      <path class="cls-1" d="m228.28,59.28c-.08-.12-.24-.15-.36-.07l-.45.3c-.12.08-.15.24-.07.36h0s3.59,5.42,3.59,5.42c.08.12.24.15.36.07l.45-.3c.12-.08.15-.24.07-.36h0s-3.59-5.42-3.59-5.42" vector-effect="non-scaling-stroke"/>
      <path class="cls-1" d="m219.03,62.13c-.75,1.14-.78,2.31-.11,3.51.15.26.49.34.74.19.13-.08.22-.2.25-.35.22-1.12.07-2.23-.45-3.32-.06-.12-.21-.17-.34-.11-.04.02-.07.05-.09.08" vector-effect="non-scaling-stroke"/>
      <path class="cls-1" d="m178.47,64.66c.67-.38,1.12-.87,1.34-1.48.12-.28-.01-.61-.29-.74s-.61.01-.74.29l-.95,2c-.18.37-.07.49.32.35.25-.09.36-.24.32-.43" vector-effect="non-scaling-stroke"/>
      <path class="cls-9" d="m143.77,71.84c.43-.05.66-1.07.52-2.27h0c-.14-1.2-.61-2.13-1.03-2.08-.43.05-.66,1.07-.52,2.27h0c.14,1.2.61,2.13,1.03,2.08" vector-effect="non-scaling-stroke"/>
      <path class="cls-9" d="m253.04,71.91l1.2.59c.1.05.22.01.27-.09,0,0,0,0,0,0l.21-.43c.85-1.74,1.22-3.3.83-3.49l-.14-.07c-.39-.2-1.39,1.05-2.25,2.78,0,0,0,0,0,0l-.21.43c-.05.1-.01.22.09.27,0,0,0,0,0,0" vector-effect="non-scaling-stroke"/>
      <path class="cls-1" d="m82.45,253.85c-.23,1.18-.08,2.28.46,3.29" vector-effect="non-scaling-stroke"/>
      <path class="cls-9" d="m82.91,257.14c.24,2.65-.06,5.26-.89,7.81-.01.03,0,.06.03.07.09.03.18.05.27.06.15,0,.24-.06.27-.21l1.21-5.74c.07-.29.05-.58-.05-.87l-.39-1.16" vector-effect="non-scaling-stroke"/>
      <path class="cls-1" d="m83.36,257.1l-.49-3.25" vector-effect="non-scaling-stroke"/>
      <path class="cls-8" d="m82.87,253.85c-.87-5.94,8.37-4,11.74-4,.65,0,1.27-.29,1.7-.78l54.41-61.98c.15-.17.29-.16.43.02l48.16,62.29c.22.29.52.44.89.44l53.63.04c.48,0,.87.39.86.88,0,.03,0,.06,0,.08-.22,1.99-1.17,3.27-2.85,3.86-.31.11-.54.31-.69.61-.31.65-.28,1.29.09,1.94.22.39.47.41.76.06,2.26-2.72,6.9-6.54,3.87-10.41-25.33-32.37-49.7-65.54-74.77-98.02-.28-.36-.27-.88.04-1.23l61.95-70.75c.68-.78.5-1.17-.53-1.18l-20.08-.17c-.98,0-1.79.36-2.44,1.09l-49.83,56.86c-.27.31-.52.3-.77-.03l-42.84-56.69c-.5-.66-1.27-1.04-2.1-1.04l-57.89-.02c-.46,0-.55.18-.27.55l73.23,95.47c.38.5.36,1.2-.05,1.68l-66.3,75.58c-.36.41-.27.63.27.65l7.79.28c.68.02,1.22.6,1.2,1.28,0,.18-.05.37-.14.53-.33.64-.29,1.34.11,2.11" vector-effect="non-scaling-stroke"/>
      <path class="cls-11" d="m82.87,253.85h-.42" vector-effect="non-scaling-stroke"/>
      <path class="cls-2" d="m83.36,257.1l-.45.04" vector-effect="non-scaling-stroke"/>
      <path class="cls-1" d="m166.14,92.33c.45.05.89-.62.98-1.48,0,0,0,0,0,0,.09-.87-.2-1.61-.65-1.66t0,0c-.45-.05-.89.62-.98,1.48,0,0,0,0,0,0-.09.87.2,1.61.65,1.66,0,0,0,0,0,0" vector-effect="non-scaling-stroke"/>
      <path class="cls-9" d="m237.85,92.76c-1.82,2.09-1.18,3.07-.17,5.26.74,1.62,1,1.55.77-.22-.15-1.17-.07-2.31.24-3.42.06-.21.11-.42.16-.63.31-1.34.03-1.71-.86-1.11-.05.03-.1.07-.14.12" vector-effect="non-scaling-stroke"/>
      <path class="cls-9" d="m68.39,97.9c.38.4,1.56-.12,2.63-1.15h0c1.07-1.03,1.62-2.19,1.24-2.59-.38-.4-1.56.12-2.63,1.15h0c-1.07,1.03-1.62,2.19-1.24,2.59" vector-effect="non-scaling-stroke"/>
      <path class="cls-1" d="m173.27,97.56l-.16,5.79c0,.08.05.14.13.15,0,0,0,0,.01,0h.1c.5.01.93-1.29.98-2.9v-.22c.05-1.61-.32-2.93-.81-2.96h-.1c-.08,0-.14.05-.15.13,0,0,0,0,0,.01" vector-effect="non-scaling-stroke"/>
      <path class="cls-1" d="m183.1,104.55c-1.4-.19-2.02,1.22-2.13,2.31-.04.45.09.51.39.16l1.86-2.13c.17-.19.13-.3-.12-.34" vector-effect="non-scaling-stroke"/>
      <path class="cls-9" d="m90.44,117.84c.43-.13.45-1.34.04-2.69s-1.1-2.34-1.53-2.21h0c-.43.13-.45,1.34-.04,2.69.41,1.35,1.1,2.34,1.53,2.21h0" vector-effect="non-scaling-stroke"/>
      <path class="cls-1" d="m168.45,117.6l-.62.12c-.44.08-.66.49-.5.91.16.42.65.69,1.09.6h0c.64-.11.87-.51.69-1.21-.09-.35-.31-.49-.66-.42" vector-effect="non-scaling-stroke"/>
      <path class="cls-9" d="m82.66,137.06c4.95,2.03,8.28,3.22,9.99,3.56,2.56.51,4.58,1.22,6.05,2.12.92.57,2.21.58,2.88-.23.16-.19.13-.47-.05-.63-.05-.04-.12-.08-.19-.09-5.27-1.2-10.33-2.91-15.19-5.13-.98-.45-2.2-.29-3.23-.29" vector-effect="non-scaling-stroke"/>
      <path class="cls-1" d="m82.92,136.37c-.47.03-.9-.06-1.29-.28-.31-.18-.56-.45-.7-.78-.79-1.82-2.12-2.22-4.01-1.21-.39.21-.89.06-1.1-.34-.05-.1-.08-.21-.09-.32l-.12-1.61c-.02-.24-.15-.45-.36-.58-2.16-1.3-4.48-2.11-6.96-2.43-.37-.05-.7-.17-1.01-.38l-1.17-.78c-.31-.21-.46-.13-.46.24,0,.99.42,1.41,1.37,1.77,2.49.94,4.68,2.38,6.55,4.33.18.19.42.3.68.31l2.09.11c.31.01.58.13.81.35,1.51,1.45,3.34,2.21,5.51,2.29" vector-effect="non-scaling-stroke"/>
      <path class="cls-2" d="m82.92,136.37c-.19.22-.27.45-.26.69" vector-effect="non-scaling-stroke"/>
      <path class="cls-9" d="m103.92,131.04c.01,1.79.51,3.47,1.48,5.04.26.43.49.41.7-.05l.58-1.31c.16-.37.09-.68-.21-.95-.95-.83-1.53-1.87-1.74-3.1-.06-.38-.24-.45-.55-.22-.17.13-.26.33-.26.59" vector-effect="non-scaling-stroke"/>
      <path class="cls-1" d="m212.24,140.33c-.08.05-.14.14-.17.25-.04.17.07.33.24.37.12.03.25-.02.32-.13l.7-1.27c.31-.55.19-.67-.36-.36-.37.22-.56.5-.57.85,0,.13-.05.22-.16.29" vector-effect="non-scaling-stroke"/>
      <path class="cls-1" d="m293.75,144.98c.65,0,1.15-1.31,1.13-2.91h0c-.02-1.6-.56-2.89-1.21-2.89-.65,0-1.15,1.31-1.13,2.91h0c.02,1.6.56,2.89,1.21,2.89" vector-effect="non-scaling-stroke"/>
      <path class="cls-8" d="m209.51,151.03c-2.03,2.23-2.42,4.39-1.17,6.46.27.47.45.43.54-.1l.99-6.29" vector-effect="non-scaling-stroke"/>
      <path class="cls-9" d="m209.87,151.1l-.19-5.57c-.01-.55-.15-.58-.4-.09-1.17,2.3-.19,3.38.23,5.59" vector-effect="non-scaling-stroke"/>
      <path class="cls-7" d="m209.87,151.1c-.18.02-.3,0-.36-.07" vector-effect="non-scaling-stroke"/>
      <path class="cls-9" d="m83.93,150.95c2.08,1.45,3.36,2.89,4.47,5.16.19.4.35.38.47-.05.93-3.5-.14-6.29-3.19-8.36-.73-.49-1.72-.31-2.21.42-.07.1-.13.21-.17.33-.41,1.09-.2,1.92.63,2.5" vector-effect="non-scaling-stroke"/>
      <path class="cls-1" d="m82.74,152.19c-.9,1.25-1.23,2.64-.98,4.17.03.21.22.35.43.32.16-.02.29-.15.32-.31l.75-3.95c.17-.87,0-.95-.52-.23" vector-effect="non-scaling-stroke"/>
      <path class="cls-9" d="m126.52,159.01c.39.08.77-.16.86-.55.05-.22-.01-.45-.16-.62l-1.26-1.44c-.21-.24-.55-.32-.85-.21l-4.92,1.85c-.38.14-.64.49-.66.89l-.25,3.69c-.05.76.12.82.51.17,2.13-3.52,1.82-4.92,6.73-3.78" vector-effect="non-scaling-stroke"/>
      <path class="cls-9" d="m125.82,167.1l-.26,3.61c-.03.33.12.48.45.44l1.48-.15c.41-.04.56-.26.43-.65l-1.08-3.37c-.08-.28-.37-.44-.64-.36-.22.06-.37.25-.38.48" vector-effect="non-scaling-stroke"/>
      <path class="cls-1" d="m279.39,167.51c0-.14-.11-.26-.26-.26h-.38c-.14,0-.26.11-.26.25h0s-.22,21.08-.22,21.08c0,.14.11.26.26.26h.38c.14,0,.26-.11.26-.25h0s.22-21.08.22-21.08" vector-effect="non-scaling-stroke"/>
      <path class="cls-9" d="m209.54,168.21l-1.27.37c-.11.03-.17.15-.14.26l.03.09c.51,1.73,1.24,3.05,1.63,2.93,0,0,0,0,0,0l.25-.07c.39-.12.29-1.62-.21-3.34l-.03-.1c-.03-.11-.15-.17-.26-.14" vector-effect="non-scaling-stroke"/>
      <path class="cls-9" d="m123.55,173.38c.24-.04.42-.15.55-.34.21-.31.14-.39-.21-.26-1.41.53-2.81-.47-4.2-2.98-.37-.66-.51-.61-.43.14.23,2.25,1.09,4.65,2.6,7.19.36.6.81.91,1.34.94.35,0,.65-.27.66-.62,0-.06,0-.11-.02-.17l-.77-3.18c-.08-.31.11-.63.43-.71.02,0,.04,0,.05-.01" vector-effect="non-scaling-stroke"/>
      <path class="cls-1" d="m258.32,178.95c-.17-.65-.57-1.02-1.18-1.13-.1-.01-.19.06-.2.16,0,.04,0,.09.03.12,2.11,2.99,4.42,5.81,6.92,8.46.21.22.38.47.52.75.43.85.6,1.75.49,2.68-.11.95.1,1.03.61.22l1.98-3.11c.58-.9,1.78-1.17,2.68-.59.03.02.07.04.1.07l1.95,1.42c.37.27.65.2.84-.23.52-1.15.48-2.26-.12-3.33-.18-.32-.45-.52-.82-.61-2.31-.52-4.24.02-6.66-1.32-.39-.22-.56-.55-.53-.99l.75-9.21c0-.07-.05-.13-.12-.14-.06,0-.11.03-.13.08-1.03,2.48-2.84,8.31-6.44,7.36-.33-.08-.58-.33-.67-.66" vector-effect="non-scaling-stroke"/>
      <path class="cls-1" d="m101.13,184.91l.9.05c.09,0,.16-.07.17-.16l.02-.23c.17-3.11.03-5.65-.3-5.67,0,0,0,0,0,0h-.02c-.34,0-.74,2.5-.91,5.6v.23c-.02.09.06.17.15.18,0,0,0,0,0,0" vector-effect="non-scaling-stroke"/>
      <path class="cls-1" d="m101.62,196.25l.54-5.94c0-.08-.05-.14-.13-.15,0,0,0,0,0,0l-.32-.03c-.37-.02-.79,1.28-.94,2.9l-.03.3c-.15,1.63.03,2.99.41,3.02,0,0,0,0,0,0l.32.03c.08,0,.14-.05.15-.13h0" vector-effect="non-scaling-stroke"/>
      <path class="cls-1" d="m274.49,211.7c.35,0,.67-2.81.72-6.29.05-3.48-.19-6.3-.54-6.31-.35,0-.67,2.81-.72,6.29-.05,3.48.19,6.3.54,6.31" vector-effect="non-scaling-stroke"/>
      <path class="cls-1" d="m254.36,210.96c1.99.95,2.6,2.41,1.84,4.38-.11.31-.02.4.28.29,1.23-.47,1.83-1.31,1.78-2.52,0-.1-.04-.2-.09-.29l-1.58-2.57c-.18-.3-.12-.69.16-.91,1.23-.98,1.75-2.23,1.56-3.75-.03-.29-.29-.5-.58-.47-.13.01-.25.07-.34.17l-3.41,3.69c-.47.51-.44,1.3.07,1.77.09.09.2.16.31.21" vector-effect="non-scaling-stroke"/>
      <path class="cls-1" d="m163.18,211.61c.73-.53,1.04-1.2.94-2.01" vector-effect="non-scaling-stroke"/>
      <path class="cls-8" d="m164.12,209.6c.71-1.16.67-2.19-.11-3.1-.2-.24-.56-.27-.81-.06-.09.08-.15.18-.18.29-.75,2.85-1.79,5.65-3.11,8.42-1.29,2.72-.94,5.68,2.17,6.51.59.16,1.2-.19,1.36-.78.04-.16.05-.32.02-.48-.32-1.71-.28-3.46.13-5.26.07-.32.08-.64.03-.96l-.44-2.57" vector-effect="non-scaling-stroke"/>
      <path class="cls-11" d="m164.12,209.6c-.86.37-1.17,1.04-.94,2.01" vector-effect="non-scaling-stroke"/>
      <path class="cls-9" d="m169.4,215.42c-2.12,3.58,1.98,4.76,3.95,6.03.19.13.3.08.32-.15l.21-2.07c.04-.45-.29-.84-.73-.88-.02,0-.05,0-.07,0h-1.29c-.27,0-.46-.12-.57-.36l-1.22-2.55c-.19-.37-.39-.38-.6-.02" vector-effect="non-scaling-stroke"/>
      <path class="cls-1" d="m258.64,222.04c.17-.12-.16-.91-.75-1.76,0,0,0,0,0,0-.59-.86-1.2-1.45-1.38-1.33-.17.12.16.91.75,1.76,0,0,0,0,0,0,.59.86,1.2,1.45,1.38,1.33" vector-effect="non-scaling-stroke"/>
      <path class="cls-9" d="m128.97,235.53c-.03.2.1.38.29.42.02,0,.04,0,.06,0h1.97c.2-.01.36-.18.35-.38,0-.01,0-.03,0-.04l-.99-6.1c-.03-.2-.22-.33-.41-.3-.15.03-.27.14-.3.3l-.97,6.1" vector-effect="non-scaling-stroke"/>
      <path class="cls-9" d="m142.88,238.67l.96.99c.16.17.43.17.6.01l.08-.07c2.24-2.16,3.73-4.26,3.33-4.68,0,0,0,0,0,0l-.1-.1c-.42-.39-2.55,1.02-4.78,3.17l-.08.07c-.17.16-.18.44-.01.61,0,0,0,0,0,0" vector-effect="non-scaling-stroke"/>
      <path class="cls-1" d="m131.82,240.46l-1.04,3c-.04.1.01.22.12.26,0,0,0,0,0,0l.09.03c.74.25,1.58-.25,1.88-1.13l.07-.21c.3-.87-.05-1.78-.78-2.04l-.09-.03c-.1-.03-.21.02-.25.12" vector-effect="non-scaling-stroke"/>
      <path class="cls-1" d="m318.4,241c-.1-.14-.3-.17-.45-.07l-11.07,8.13c-.14.1-.17.3-.07.45l.25.34c.1.14.3.17.45.07l11.07-8.13c.14-.1.17-.3.07-.45l-.25-.34" vector-effect="non-scaling-stroke"/>
      <path class="cls-1" d="m274.18,244.67c.41.14.95-.34,1.2-1.07,0,0,0,0,0,0,.25-.73.12-1.44-.3-1.58h0c-.41-.14-.95.34-1.2,1.07,0,0,0,0,0,0-.25.73-.12,1.44.3,1.58h0" vector-effect="non-scaling-stroke"/>
      <path class="cls-9" d="m137.23,247.86l-1.55-.06c-.13,0-.23.09-.24.22,0,0,0,0,0,0v.14c-.15,3.5.14,6.36.63,6.38,0,0,0,0,0,0h.22c.5.01,1.01-2.81,1.15-6.3v-.14c0-.13-.09-.23-.22-.24,0,0,0,0,0,0" vector-effect="non-scaling-stroke"/>
      <path class="cls-1" d="m300.78,254.77c-.74.67-1.37,1.43-1.89,2.28-.15.23-.09.54.14.7.23.15.54.09.7-.15l2.7-3.97c.1-.15.06-.36-.09-.46-.12-.08-.27-.08-.38,0-.26.19-.45.43-.57.72-.14.33-.34.62-.61.87" vector-effect="non-scaling-stroke"/>
      <path class="cls-9" d="m245.55,261.32c.49-.35.43-1.27-.13-2.05h0c-.56-.78-1.41-1.13-1.9-.78,0,0,0,0,0,0-.49.35-.43,1.27.13,2.05h0c.56.78,1.41,1.13,1.9.78h0" vector-effect="non-scaling-stroke"/>
      <path class="cls-1" d="m137.56,267.23c3.4.19,3.14,3.89,3.14,6.12-.01.61.47,1.11,1.08,1.12.46,0,.87-.27,1.04-.69.65-1.59.34-2.86-.94-3.83-.33-.24-.53-.61-.57-1.01l-1-9.77c-.02-.1-.13-.17-.23-.14-.07.02-.13.07-.14.14-.29,2.57-1.26,4.84-2.91,6.82-.27.32-.23.8.09,1.07.12.1.28.16.44.17" vector-effect="non-scaling-stroke"/>
      <path class="cls-1" d="m255,259.19c-.74,1.31-1.85,1.87-3.32,1.67-.37-.05-.55.11-.54.48.02.37.17.64.44.82.29.19.67.22,1.14.09,1.41-.37,2.44-1.26,3.09-2.65.1-.23,0-.49-.23-.59-.21-.09-.46-.01-.58.18" vector-effect="non-scaling-stroke"/>
      <path class="cls-1" d="m248.53,261.69l.32-1.38c.06-.26-.1-.53-.37-.59-.16-.04-.33.01-.45.13l-.93.94c-.24.24-.24.63,0,.87h0s.34.34.34.34c.25.25.67.25.92,0,.08-.08.14-.19.17-.31" vector-effect="non-scaling-stroke"/>
      <path class="cls-8" d="m188.13,269.42l1.13,2.14c.25.47.5.48.76.01.35-.62.3-1.17-.15-1.66-1.11-1.21-1.41-2.46-.91-3.73.11-.28.1-.55-.05-.82-.69-1.27-1.77-1.92-3.23-1.97-.87-.03-1.6.65-1.64,1.53-.01.37.1.73.33,1.02.85,1.11,1.87,2.02,3.05,2.73.31.19.54.44.71.75" vector-effect="non-scaling-stroke"/>
      <path class="cls-1" d="m282.09,268.9c6.22.42,3.24-2.75,6.88-4.25.17-.07.18-.16.04-.27-.09-.07-.2-.07-.35-.02-2.51.88-4.76,2.24-6.73,4.09-.29.27-.24.42.16.45" vector-effect="non-scaling-stroke"/>
      <path class="cls-1" d="m134,269.49c.38-.4.28-1.11-.23-1.59h0c-.51-.48-1.22-.54-1.6-.14,0,0,0,0,0,0-.38.4-.28,1.11.23,1.59h0c.51.48,1.22.54,1.6.14,0,0,0,0,0,0" vector-effect="non-scaling-stroke"/>
      <path class="cls-1" d="m281.07,269.38l-7.4,5.74s-.01.04,0,.05h0c.56.74,2.66.07,4.68-1.5h0s.16-.12.16-.12c2.02-1.56,3.19-3.43,2.62-4.16,0,0,0,0,0,0h0s-.04-.03-.05-.01c0,0,0,0,0,0" vector-effect="non-scaling-stroke"/>
      <path class="cls-1" d="m255.56,270.18l-.19,1.27c-.06.42.12.64.55.67.5.03.85-.15,1.05-.53.16-.31.16-.63,0-.98-.18-.39-.47-.65-.87-.77-.22-.07-.46.06-.53.28,0,.02-.01.04-.01.06" vector-effect="non-scaling-stroke"/>
      <path class="cls-1" d="m24.87,272.06c-.14-.24-.44-.32-.68-.18l-.22.13c-.24.14-.32.44-.18.68l4.42,7.63c.14.24.44.32.68.18l.23-.13c.24-.14.32-.44.18-.68l-4.42-7.63" vector-effect="non-scaling-stroke"/>
      <path class="cls-1" d="m167.62,274.56c-.18,1.35-.97,1.95-2.36,1.78-.35-.04-.67.21-.71.56-.01.09,0,.18.02.26l.74,2.56c.15.51.68.8,1.19.66.13-.04.25-.1.35-.19,1.89-1.59,2.41-3.5,1.56-5.73-.08-.21-.32-.32-.53-.24-.14.05-.24.18-.26.34" vector-effect="non-scaling-stroke"/>
      <path class="cls-1" d="m153.37,275.3l-1.55,3.53c-.05.1,0,.22.1.27,0,0,0,0,.01,0l.04.02c.89.39,1.94-.03,2.34-.94l.27-.61c.4-.91,0-1.97-.9-2.36h0s-.05-.02-.05-.02c-.1-.04-.22,0-.26.11" vector-effect="non-scaling-stroke"/>
      <path class="cls-1" d="m221.8,280.04c.68-.97.74-1.99.17-3.04-.11-.2-.36-.28-.57-.17-.13.07-.22.21-.22.36l-.03,2.64c0,.2.16.36.36.36.11,0,.22-.06.29-.15" vector-effect="non-scaling-stroke"/>
      <path class="cls-9" d="m269.91,279.84c.47-.51.79-1.24.94-2.18.03-.2-.05-.31-.26-.33-.99-.07-1.78.29-2.39,1.09-.39.47-.33,1.17.14,1.57.47.39,1.17.33,1.57-.15" vector-effect="non-scaling-stroke"/>
      <path class="cls-1" d="m257.85,281.16c.21.32.48.57.79.74.37.2.52.09.46-.32-.13-.95-.47-1.86-1.02-2.73-.24-.35-.71-.43-1.06-.19-.27.19-.39.53-.29.85.39,1.06.77,1.61,1.12,1.65" vector-effect="non-scaling-stroke"/>
      <path class="cls-9" d="m123.67,279.72c.85,2.11.37,4.25,1.1,6.01.18.44.69.65,1.12.46.2-.08.35-.23.45-.42l.33-.69c.09-.19.07-.42-.06-.59-1.06-1.42-1.84-2.98-2.35-4.68-.02-.07-.06-.11-.13-.14-.11-.03-.21-.07-.31-.1-.06-.02-.13.02-.15.08,0,.02,0,.05,0,.07" vector-effect="non-scaling-stroke"/>
      <path class="cls-1" d="m259.06,289.46c.46.41.66.31.6-.31-.08-.86.12-1.67.61-2.42.13-.2.29-.38.48-.52,1.63-1.24,3-2.71,4.13-4.42.08-.15.03-.34-.12-.42-.1-.06-.22-.05-.32.01-1.27.97-2.7,1.47-4.27,1.52-.3,0-.46.16-.48.47-.07,1.06-.64,1.68-1.73,1.87-.81.14-1.35.9-1.21,1.71.06.33.22.63.47.85l1.84,1.66" vector-effect="non-scaling-stroke"/>
      <path class="cls-1" d="m168.34,293.22l-1.85-4.28c-.05-.12-.18-.17-.3-.12-.1.04-.15.14-.14.24l.56,4.15c.05.39.26.65.62.79.63.25,1.01.11,1.14-.41.03-.12.02-.25-.03-.37" vector-effect="non-scaling-stroke"/>
      <path class="cls-9" d="m207.02,300.31c-.17.28.06.48.71.6.61.11,1.19-.29,1.3-.9,0-.01,0-.03,0-.04.4-2.81,0-5.49-1.18-8.05-.05-.13-.2-.19-.32-.14-.12.05-.19.18-.15.31.62,2.6-.98,6.2-.34,7.76.07.16.06.31-.03.46" vector-effect="non-scaling-stroke"/>
      <path class="cls-1" d="m189.73,294.13c.38.15.86-.18,1.07-.74.22-.55.09-1.12-.28-1.27h0c-.38-.15-.86.18-1.07.74-.22.55-.09,1.12.28,1.27h0" vector-effect="non-scaling-stroke"/>
      <path class="cls-1" d="m55.88,301.25c1.27.19,1.85-.46,1.72-1.97-.02-.26-.07-.51-.15-.76-.74-2.29.02-4,2.29-5.13.39-.19.37-.36-.04-.49-4.25-1.37-4.44,4.85-4.58,7.4-.03.46.3.87.76.95" vector-effect="non-scaling-stroke"/>
      <path class="cls-1" d="m262.48,294.46l-1.78-.12c-.44-.03-.83.29-.88.73-.19,1.7-.83,3.22-1.92,4.56-.03.03-.03.06,0,.09.07.07.14.14.21.2.21.22.41.21.6-.03,1.14-1.46,2.53-2.62,4.17-3.48.51-.27.7-.9.44-1.4-.17-.32-.48-.52-.84-.55" vector-effect="non-scaling-stroke"/>
      <path class="cls-1" d="m161.3,302.31c.43-.06.69-.7.59-1.44h0c-.1-.73-.53-1.28-.96-1.22-.43.06-.69.7-.59,1.44h0c.1.73.53,1.28.96,1.22h0" vector-effect="non-scaling-stroke"/>
      <path class="cls-1" d="m57.23,307.94l2.2,1.43c.22.15.53.1.68-.13.12-.18.11-.41-.02-.58l-4.09-5.32c-.25-.33-.73-.4-1.07-.14-.02.01-.03.03-.05.04-1.85,1.7-2.31,3.8-1.39,6.29.07.21.2.24.38.11l2.16-1.65c.39-.3.79-.32,1.2-.05" vector-effect="non-scaling-stroke"/>
      <path class="cls-1" d="m70.75,309.72c-.43-.48-1.36-.34-2.07.3h0c-.71.64-.95,1.55-.52,2.03.43.48,1.36.34,2.07-.3,0,0,0,0,0,0,.71-.64.95-1.55.52-2.03" vector-effect="non-scaling-stroke"/>
      <path class="cls-4" d="m77.07,319.92c.39.07.94-1.17,1.25-2.79t0,0c.3-1.61.24-2.98-.15-3.05h0c-.39-.07-.94,1.17-1.25,2.79h0c-.3,1.61-.24,2.98.15,3.05,0,0,0,0,0,0" vector-effect="non-scaling-stroke"/>
      <path class="cls-1" d="m158.35,317.54c-.97.95-1.52,1.95-1.66,3.01-.07.68.42,1.29,1.1,1.36.57.06,1.1-.28,1.3-.81.42-1.26.5-2.54.25-3.83-.09-.47-.33-.56-.71-.27-.19.15-.29.33-.28.54" vector-effect="non-scaling-stroke"/>
      <path class="cls-8" d="m205.63,230.13c.26.33.65.52,1.07.52l14.8.02c.33,0,.6-.27.6-.6,0-.13-.04-.25-.12-.35-34.15-45.14-69.31-89.68-102.96-135.25-.22-.31-.52-.45-.89-.44l-15.97.36c-.35,0-.42.15-.2.43l103.67,135.31" vector-effect="non-scaling-stroke"/>
      <path class="cls-8" d="m115.81,107.58c.45-.38.37-1.22-.19-1.87h0c-.55-.65-1.37-.87-1.82-.49h0c-.45.38-.37,1.22.19,1.87t0,0c.55.65,1.37.87,1.82.49,0,0,0,0,0,0" vector-effect="non-scaling-stroke"/>
      <path class="cls-9" d="m119.25,107.5c-.16.11-.2.34-.09.5.01.02.03.04.05.06l1.4,1.34c.45.43.75.35.89-.26l.19-.88c.07-.29-.02-.52-.26-.69-.75-.52-1.47-.54-2.18-.07" vector-effect="non-scaling-stroke"/>
      <path class="cls-1" d="m139.13,136.81c0,.25.21.44.46.44.21,0,.38-.15.43-.36.27-1.07.04-2.38-.69-3.91-.05-.11-.18-.16-.29-.11-.09.04-.14.13-.13.22l.22,3.72" vector-effect="non-scaling-stroke"/>
      <path class="cls-10" d="m135.37,318.6c-.21,1-.04,1.74.53,2.21" vector-effect="non-scaling-stroke"/>
      <path class="cls-3" d="m135.9,320.81v1.27c0,.46.37.84.84.84.17,0,.34-.05.49-.15,1.62-1.13,2.45-2.59,2.5-4.38" vector-effect="non-scaling-stroke"/>
      <path class="cls-10" d="m139.73,318.39c.07-.79.24-1.33.53-1.64" vector-effect="non-scaling-stroke"/>
      <path class="cls-5" d="m142.88,318.8c-.45,1.11-.34,1.86.34,2.24.83.45,1.38.22,1.65-.69" vector-effect="non-scaling-stroke"/>
      <path class="cls-5" d="m211.7,322.1c.68.24,1.57.02,2.67-.65" vector-effect="non-scaling-stroke"/>
      <path class="cls-2" d="m154.91,240.06l-.29-1.46" vector-effect="non-scaling-stroke"/>
      <path class="cls-2" d="m154.2,257.6c.32-1.27.05-2.08-.81-2.44-.3-.13-.49-.34-.58-.65-.25-.91-.89-1.4-1.9-1.45" vector-effect="non-scaling-stroke"/>
      <path class="cls-2" d="m152.77,264.1c-.93.41-1.48,1.14-1.67,2.19-.2,1.11-.83,1.38-1.9.81" vector-effect="non-scaling-stroke"/>
      <path class="cls-9" d="m150.58,259.79c.82.33,1.56.24,2.23-.26.27-.21.31-.59.11-.86-.01-.02-.03-.04-.05-.05l-1.34-1.34c-.13-.12-.33-.12-.45,0-.04.04-.06.08-.08.13l-.64,1.92c-.06.19.04.39.22.46" vector-effect="non-scaling-stroke"/>
      <path class="cls-2" d="m148.41,284.81l-4.01,2.56c-.39.25-.42.53-.07.84.92.83,2.11,1.05,3.58.68" vector-effect="non-scaling-stroke"/>
      <path class="cls-2" d="m146.9,293.56c-1.81.73-3.63.66-5.45-.21" vector-effect="non-scaling-stroke"/>
      <path class="cls-2" d="m146.16,283.73c.68-.55.69-1.66.02-2.49s-1.76-1.05-2.44-.5h0c-.68.55-.69,1.66-.02,2.49s1.76,1.05,2.44.5t0,0" vector-effect="non-scaling-stroke"/>
      <path class="cls-7" d="m144.41,302.89c-1.33-1.01-2.5-.82-3.49.59-.2.27-.18.53.06.77.6.61,1.5.97,2.69,1.08" vector-effect="non-scaling-stroke"/>
      <path class="cls-7" d="m139.73,318.39c.05-1.01-.31-1.53-1.07-1.54-1.86-.04-2.78,1.28-2.76,3.96" vector-effect="non-scaling-stroke"/>
    </g>
    <path class="cls-12" d="m322.69,214.61c-.21,7.11-.32,14.22-.33,21.34-.05,31.5-6.2,59.65-35.07,76.61-9.35,5.5-21.02,7.82-31.88,8.81-12.51,1.13-25.6,1.72-39.25,1.77-1.09,0-1.69-.56-1.79-1.69-2.42-5.42-3.93-11.17-4.52-17.26-.06-.58-.25-1.04-.57-1.39-.18-.2-.49-.21-.7-.02-.08.08-.14.19-.15.3l-.5,4.42c-.02.2.02.39.1.56,1.37,2.59,2.87,4.54,3.09,7.59.16,2.16.35,4.31.58,6.45-.5.37-1.15.81-1.81.83-9.75.23-19.49.2-29.23-.09-.36-.01-.66-.29-.69-.65l-.2-2.09c-.03-.17-.19-.3-.36-.27-.13.02-.24.12-.27.25l-.37,2.16c-.09.52-.4.78-.93.78h-32.67c-.37,0-.53-.18-.5-.55l.2-2.12c.19-2.18,1.03-4,2.51-5.46,3.25-3.2,2.97-8.15,3.33-12.26.03-.33.14-.64.33-.91.79-1.14,1.14-2.42,1.07-3.85-.02-.33-.19-.44-.5-.33l-1.26.47c-.34.13-.54.48-.46.83.25,1.11-.01,2.09-.8,2.93-.21.23-.46.38-.76.46-2.94.78-1.01,3.93-.15,5.47.16.29.14.64-.05.91-2.24,3.14-1.83,6.74-5.25,10.19-.59.12-1.12.38-1.61.77-.32.26-.51.19-.58-.22l-.43-2.6c.98-2.61,2.46-4.3,2.82-7.14.18-1.41.38-2.83.59-4.28.69-.47.93-1.29.74-2.44h.35c.36-.02.51-.21.46-.56-.48-3.25.08-6.17,1.68-8.77-.41-2.02-.07-3.58,1.01-4.67,1.71-1.01,1.87-2.37.5-4.08-.57-1.55-.32-2.85.73-3.92.24-.25.35-.54.32-.88-.25-3.46.8-6.46,3.13-8.99.21-.22.46-.37.75-.44,1.09-.27,2.02-.8,2.8-1.57.54-.54.54-1.41,0-1.95-.11-.11-.24-.2-.38-.27-.67-.31-1.17-.29-1.52.08-.31.33-.61.32-.9-.03-.66-.79-.85-1.7-.57-2.74,1.54-1.69,2.02-3.85,1.43-6.5,1.79-4.54,2.62-9.27,2.49-14.19-.02-.63-.24-.71-.66-.25-.46.5-.74,1.09-.84,1.76-.16,1.13-.71,1.37-1.65.73-2.49-1.69-.14-4.29,1.37-5.59,2.8,1.33,3.48-2.36,4.24-4.17.13-.3.12-.59-.03-.88-1.24-2.49-1.18-4.91.18-7.26.19-.34.45-.62.78-.83.71-.47,1.2-1.12,1.46-1.95.33-1.07-.14-2.22-1.12-2.75-1.77-.95-3.05-.25-3.82,2.11-1.23,3.79-1.07,7.52.5,11.2.14.34.08.64-.19.89l-2.29,2.18-3.99,3.53c-.24.21-.29.46-.15.75,1.59,3.25,1.74,6.64.43,10.18-1.55,2.09-2.11,4.43-1.68,7.02.05.34.01.69-.11,1.01-.79,1.99-.77,4,.08,6.01l.21,2.99c.02.29-.07.57-.26.79l-3.27,3.87c-.1.12-.16.28-.15.43l.22,4.41c.02.47-.2.68-.67.61l-1.75-.24c-.35-.05-.67.18-.74.52l-.62,2.94c-.03.12-.08.22-.16.31-.43.46-.78.96-1.05,1.51-.15.31-.13.62.05.91,1.41,2.25,1.56,4.65.44,7.2-.81,2.39-1,4.8-.57,7.22.05.28-.06.43-.35.46l-1.91.19c-.36.03-.62.21-.78.54-1.46,2.98-.93,6.05-1.47,8.76-.53,2.66-.87,5.35-1,8.08-.6,1.86-.43,4.68-3.27,4.49-.85-.06-1.31-.09-1.39-.09-21.63.44-43.23-.12-64.8-1.69-4.33-.31-8.5-1.36-12.53-3.16-.24-.11-.34-.29-.3-.56l.67-4.38c.05-.31-.16-.59-.47-.64-.14-.02-.29.01-.41.1-1.43,1.02-2.23,2.44-2.42,4.26-.1.97-.61,1.29-1.53.98-27.71-9.44-44-31.87-46.34-60.73-.95-11.79-1.44-20.84-1.46-27.14-.17-43.31-.16-86.63.02-129.94.13-33.4.53-64.26,31.34-85.72.35-.24.67-.22.98.07l3.19,2.97c.16.15.25.37.24.59l-.25,5.55c-.03.48.34.89.82.92.28.01.54-.1.72-.32,1.27-1.53,2.01-3.26,2.22-5.21.04-.33-.02-.64-.17-.93l-2.87-5.75c-.16-.33-.03-.73.3-.89C54.8,2.89,74.09,1.7,92.85,1.58c32.97-.21,65.94-.29,98.91-.22.46,0,.69.23.69.69l.05,7.38c0,.28.22.5.5.5.11,0,.21-.04.3-.1.72-.52.95-1.17.75-2.09-.4-1.87-.52-3.8-.35-5.79.04-.55.51-.97,1.06-.95,32.51,1.05,70.2-4,97.58,14.16,2.32,1.54,3.57,3.59,3.76,6.15.13,1.72.68,3.25,2.73,2.42.35-.15.61-.39.76-.74l.38-.87c.13-.27.3-.3.51-.09,17.46,17.27,21.23,38.39,21.85,62.26.6,23.48-.05,46.84-.08,70.31-.02,18.42.3,36.83.07,55.25-.02,1.6.1,3.19.37,4.76ZM240.91,8.4c.67-1.83.18-2.99-1.47-3.48-.33-.1-.62-.28-.86-.54-1.14-1.26-2.75-1.81-4.82-1.66-.35.04-.59.35-.55.7.03.29.26.51.54.55l2.06.2c.28.03.5.15.67.38,1,1.38,1.38,4.39,3.46,4.49.43.03.82-.23.97-.64Zm-37.35.94l-1.13-.61c-.19-.1-.43-.03-.54.16l-2.12,3.89c-.55,1.01-.59,2.05-.09,2.33,0,0,0,0,0,0h0c.5.28,1.36-.32,1.91-1.33,0,0,0,0,0,0l2.13-3.9c.1-.19.03-.43-.16-.54Zm-16.32,27.03c2.04,3.19,1.94,6.48-.31,9.86-.16.24-.1.57.14.73.04.02.08.04.12.06l1.79.62c.12.05.23.13.3.24l.59.97c1.36,1.74,1.67,3.58.92,5.51-.06.12,0,.26.11.32.09.05.21.03.28-.05l2.54-2.27c.28-.25.39-.56.34-.93-.49-3.44,3.88-4.89,6.52-4.52.34.05.58.35.56.69-.17,2.66-1.75,6.94-.4,9.19.53.87,1.67,1.15,2.54.62.57-.35.91-.98.89-1.65-.02-.53-.18-.89-.49-1.08-1.07-.66-1.37-2.09-.69-3.21,0,0,0,0,0-.01,1.89-3.03,1.75-5.86-.44-8.5-.25-.31-.57-.39-.94-.24-4.52,1.77-5.87,4.45-11.17,2.63-1.27-1.49-1.45-3.19-.53-5.08l4.41,1.31c.56.17,1.14-.15,1.31-.71.02-.05.03-.1.03-.15.05-.35-.02-.72-.22-1.12.31-1.67,1.33-2.67,3.05-3,.3-.06.6.11.71.4l.89,2.29c.33.84.56.81.68-.09.51-3.72-1.98-4.8-2.93-7.15-.61-1.52-.43-4.95-1.02-5.71-.33-.43-.82-.58-1.48-.47-.4.07-.68.42-.65.83.11,1.51.47,2.97,1.09,4.37.14.31.2.63.19.96-.04,1.43-.69,2.5-1.95,3.23-1.89-3.68-5.03-10.01-1.36-13.04.27-.23.46-.54.52-.9l.58-3.26c.06-.35.21-.65.45-.9.41-.43.93-.61,1.56-.55.72.07.81-.13.27-.61l-3.48-3.09c-.19-.17-.48-.16-.65.03-.08.08-.12.2-.12.31l-.11,6.72c0,.33-.11.63-.32.88-3.02,3.68-2,6.31-1.7,10.61.05.78-.4,1.51-1.13,1.82-1.77.73-2.2,1.76-1.3,3.09Zm58.58-19.75c.73-.04,1.41-.64,1.51-1.35.09-.64-.32-1.16-.97-1.21-.77-.05-1.45-.37-2.04-.97-.32-.33-.85-.32-1.17,0-.26.27-.32.68-.14,1,.99,1.71,1.92,2.55,2.81,2.52Zm-26.68,1.18c.55-.13.84-.96.64-1.86-.2-.9-.82-1.53-1.37-1.4s-.84.96-.64,1.86c.2.9.82,1.53,1.37,1.4Zm-137.52,1.88l1.87-3.78c.04-.07,0-.15-.06-.19,0,0,0,0,0,0h-.02c-.9-.46-2.05.03-2.57,1.07,0,0,0,0,0,0l-.12.25c-.51,1.04-.2,2.25.7,2.69h.02c.07.04.14.01.18-.05Zm169.55,4.69l1.26-1.08c.28-.24.31-.65.08-.93,0,0,0,0,0,0l-.12-.13c-2.02-2.35-4.14-3.85-4.74-3.36l-.12.11c-.58.51.58,2.83,2.61,5.19l.11.14c.24.28.65.31.93.07Zm30.97,2.8c.54.25,1.25-.13,1.58-.85h0c.33-.72.15-1.5-.39-1.75h0c-.54-.25-1.25.13-1.58.85,0,0,0,0,0,0-.33.72-.15,1.5.39,1.75h0Zm-224.16,7.61s.02.03.04.03c.53.02.98-.09,1.34-.34.46-.32,1.93-4.6,2.65-5.64.44-.66.26-1.54-.4-1.98-.45-.3-1.02-.32-1.49-.06-.87.51-1.78.79-2.73.83-.32.02-.57.28-.55.6,0,.03,0,.07.01.1.44,1.9.82,4.05,1.13,6.46Zm49.29,2.55c1.72-.37,4.38-.92,3.15-3.43-.13-.27-.37-.47-.66-.55l-3.5-.99c-.45-.13-.79-.39-1.03-.79-.21-.35-.5-.51-.88-.47-.39.04-.69.37-.69.76v1.98c0,.28-.1.55-.27.77-1.45,1.83-1.31,3.37.43,4.6.39.28.56.77.42,1.22l-1.49,5.13c-.06.2.06.41.26.47.04.01.09.02.14.02,5.31-.31,3.55-4.71,3.57-8.05,0-.37.18-.6.55-.67Zm171.54-3.02c.09-.12.05-.29-.07-.38l-.25-.17c-.12-.09-.29-.05-.38.07l-7.61,10.95c-.09.12-.05.29.07.38l.25.17c.12.09.29.05.38-.07l7.61-10.95Zm-55.9,19.08c.42,1.75,1.47,2.67,3.14,2.76.37.02.53-.15.5-.51-.15-1.64-.76-3.07-1.85-4.29-.69-.91-1.61-1.22-2.78-.93-.36.1-.74-.04-.96-.35l-1.42-2.01c-.14-.2-.41-.27-.63-.15-1.58.85-2.35,2.15-2.3,3.91,0,.24.2.42.44.42.2,0,.37-.14.41-.34.21-.94.66-1.43,1.36-1.47.44-.03.94.2,1.5.67.89.75,1.76,1.51,2.59,2.29Zm45.03-3.24c.13-.19.07-.44-.11-.57t0,0h-.02c-.19-.14-.44-.09-.57.1h0s-9.18,13.76-9.18,13.76c-.13.19-.07.44.11.57h0s.02.01.02.01c.19.13.44.07.57-.11h0s9.18-13.76,9.18-13.76Zm-182.6,3.48l-2.01-1.43c-.23-.16-.47-.18-.72-.07l-5.15,2.25c-.25.11-.24.18.02.21,2.09.27,5.79.02,7.75-.39.47-.11.5-.3.11-.57Zm101.57,21.68c-.36.9-1.02,1.47-1.97,1.72-.43.11-.69.55-.58.99,0,0,0,0,0,.01l.46,1.75c.06.23.29.37.52.31.14-.04.25-.14.3-.27l1.77-4.43.56-7.53c.03-.42-.15-.72-.54-.89l-1.08-.47c-.31-.13-.46-.49-.33-.8.05-.12.13-.22.24-.28,1.54-.97,3.15-1.12,4.84-.43.35.14.62.37.82.68l1.74,2.72c2.15,2.29,1.65,3.43,2.33,6.22.12.49.28.51.49.05,1.28-2.89,3.66-5.39,3.65-8.63,0-.07-.01-.11-.03-.12-.09-.03-.17-.05-.26-.08-.02,0-.04.03-.05.1l-.56,2.68c-.08.39-.3.65-.67.79-1.75.69-3.21.18-4.36-1.55-.57-1.11-.84-2.34-.83-3.71,0-.3-.21-.57-.51-.61-3.76-.6-8.98-2.87-4.69-7.49.35-.38.27-.61-.24-.69-1.56-.26-2.56-1.19-2.99-2.78-.07-.25-.33-.39-.58-.32-.15.04-.27.16-.31.3-.29.95-.11,1.79.52,2.53.21.24.32.52.33.85l.42,9.83c.01.33-.08.62-.29.88-1.31,1.64.21,3.92.39,5.9.03.31.18.56.45.73.69.45,1.04,1.13,1.04,2.04Zm33.1-16.79l.39-1.26c.11-.33.04-.63-.21-.88l-2.61-2.6c-.27-.27-.39-.22-.36.16.11,1.73.63,3.32,1.54,4.75.21.32.64.42.96.21.14-.09.24-.22.29-.38Zm-25.85.96l5.4,1.43c.28.07.46-.03.54-.31.66-2.34-.99-2.48-2.69-2.54-5.31-.29-6.39.18-3.25,1.42Zm31.85,9.66c.29-.38.36-.8.19-1.25-1.03-2.73-1.38-5.72-1.06-8.98.06-.62-.11-.99-.5-1.12-.25-.08-.51.05-.6.29-.01.03-.02.07-.02.11-.35,3.76-.2,7.48.46,11.16.07.35.41.58.76.52.15-.03.29-.11.39-.24l.38-.49Zm2.27-9.86c-.08-.12-.24-.15-.36-.07l-.45.3c-.12.08-.15.24-.07.36h0s3.59,5.42,3.59,5.42c.08.12.24.15.36.07l.45-.3c.12-.08.15-.24.07-.36h0s-3.59-5.42-3.59-5.42Zm-9.25,2.85c-.75,1.14-.78,2.31-.11,3.51.15.26.49.34.74.19.13-.08.22-.2.25-.35.22-1.12.07-2.23-.45-3.32-.06-.12-.21-.17-.34-.11-.04.02-.07.05-.09.08Zm-40.56,2.53c.67-.38,1.12-.87,1.34-1.48.12-.28-.01-.61-.29-.74s-.61.01-.74.29l-.95,2c-.18.37-.07.49.32.35.25-.09.36-.24.32-.43Zm-34.7,7.17c.43-.05.66-1.07.52-2.27h0c-.14-1.2-.61-2.13-1.03-2.08-.43.05-.66,1.07-.52,2.27h0c.14,1.2.61,2.13,1.03,2.08Zm109.27.08l1.2.59c.1.05.22.01.27-.09,0,0,0,0,0,0l.21-.43c.85-1.74,1.22-3.3.83-3.49l-.14-.07c-.39-.2-1.39,1.05-2.25,2.78,0,0,0,0,0,0l-.21.43c-.05.1-.01.22.09.27,0,0,0,0,0,0ZM82.45,253.85c-.23,1.18-.08,2.28.46,3.29.24,2.65-.06,5.26-.89,7.81-.01.03,0,.06.03.07.09.03.18.05.27.06.15,0,.24-.06.27-.21l1.21-5.74c.07-.29.05-.58-.05-.87l-.39-1.16-.49-3.25c-.87-5.94,8.37-4,11.74-4,.65,0,1.27-.29,1.7-.78l54.41-61.98c.15-.17.29-.16.43.02l48.16,62.29c.22.29.52.44.89.44l53.63.04c.48,0,.87.39.86.88,0,.03,0,.06,0,.08-.22,1.99-1.17,3.27-2.85,3.86-.31.11-.54.31-.69.61-.31.65-.28,1.29.09,1.94.22.39.47.41.76.06,2.26-2.72,6.9-6.54,3.87-10.41-25.33-32.37-49.7-65.54-74.77-98.02-.28-.36-.27-.88.04-1.23l61.95-70.75c.68-.78.5-1.17-.53-1.18l-20.08-.17c-.98,0-1.79.36-2.44,1.09l-49.83,56.86c-.27.31-.52.3-.77-.03l-42.84-56.69c-.5-.66-1.27-1.04-2.1-1.04l-57.89-.02c-.46,0-.55.18-.27.55l73.23,95.47c.38.5.36,1.2-.05,1.68l-66.3,75.58c-.36.41-.27.63.27.65l7.79.28c.68.02,1.22.6,1.2,1.28,0,.18-.05.37-.14.53-.33.64-.29,1.34.11,2.11Zm83.69-161.52c.45.05.89-.62.98-1.48,0,0,0,0,0,0,.09-.87-.2-1.61-.65-1.66t0,0c-.45-.05-.89.62-.98,1.48,0,0,0,0,0,0-.09.87.2,1.61.65,1.66,0,0,0,0,0,0Zm71.71.43c-1.82,2.09-1.18,3.07-.17,5.26.74,1.62,1,1.55.77-.22-.15-1.17-.07-2.31.24-3.42.06-.21.11-.42.16-.63.31-1.34.03-1.71-.86-1.11-.05.03-.1.07-.14.12Zm-169.47,5.14c.38.4,1.56-.12,2.63-1.15h0c1.07-1.03,1.62-2.19,1.24-2.59-.38-.4-1.56.12-2.63,1.15h0c-1.07,1.03-1.62,2.19-1.24,2.59Zm104.89-.34l-.16,5.79c0,.08.05.14.13.15,0,0,0,0,.01,0h.1c.5.01.93-1.29.98-2.9v-.22c.05-1.61-.32-2.93-.81-2.96h-.1c-.08,0-.14.05-.15.13,0,0,0,0,0,.01Zm9.83,6.99c-1.4-.19-2.02,1.22-2.13,2.31-.04.45.09.51.39.16l1.86-2.13c.17-.19.13-.3-.12-.34Zm-92.66,13.29c.43-.13.45-1.34.04-2.69s-1.1-2.34-1.53-2.21h0c-.43.13-.45,1.34-.04,2.69.41,1.35,1.1,2.34,1.53,2.21h0Zm78.01-.24l-.62.12c-.44.08-.66.49-.5.91.16.42.65.69,1.09.6h0c.64-.11.87-.51.69-1.21-.09-.35-.31-.49-.66-.42Zm-85.79,19.46c4.95,2.03,8.28,3.22,9.99,3.56,2.56.51,4.58,1.22,6.05,2.12.92.57,2.21.58,2.88-.23.16-.19.13-.47-.05-.63-.05-.04-.12-.08-.19-.09-5.27-1.2-10.33-2.91-15.19-5.13-.98-.45-2.2-.29-3.23-.29-.47.03-.9-.06-1.29-.28-.31-.18-.56-.45-.7-.78-.79-1.82-2.12-2.22-4.01-1.21-.39.21-.89.06-1.1-.34-.05-.1-.08-.21-.09-.32l-.12-1.61c-.02-.24-.15-.45-.36-.58-2.16-1.3-4.48-2.11-6.96-2.43-.37-.05-.7-.17-1.01-.38l-1.17-.78c-.31-.21-.46-.13-.46.24,0,.99.42,1.41,1.37,1.77,2.49.94,4.68,2.38,6.55,4.33.18.19.42.3.68.31l2.09.11c.31.01.58.13.81.35,1.51,1.45,3.34,2.21,5.51,2.29Zm21.26-6.02c.01,1.79.51,3.47,1.48,5.04.26.43.49.41.7-.05l.58-1.31c.16-.37.09-.68-.21-.95-.95-.83-1.53-1.87-1.74-3.1-.06-.38-.24-.45-.55-.22-.17.13-.26.33-.26.59Zm108.32,9.29c-.08.05-.14.14-.17.25-.04.17.07.33.24.37.12.03.25-.02.32-.13l.7-1.27c.31-.55.19-.67-.36-.36-.37.22-.56.5-.57.85,0,.13-.05.22-.16.29Zm81.51,4.65c.65,0,1.15-1.31,1.13-2.91h0c-.02-1.6-.56-2.89-1.21-2.89-.65,0-1.15,1.31-1.13,2.91h0c.02,1.6.56,2.89,1.21,2.89Zm-84.24,6.05c-2.03,2.23-2.42,4.39-1.17,6.46.27.47.45.43.54-.1l.99-6.29-.19-5.57c-.01-.55-.15-.58-.4-.09-1.17,2.3-.19,3.38.23,5.59Zm-125.58-.08c2.08,1.45,3.36,2.89,4.47,5.16.19.4.35.38.47-.05.93-3.5-.14-6.29-3.19-8.36-.73-.49-1.72-.31-2.21.42-.07.1-.13.21-.17.33-.41,1.09-.2,1.92.63,2.5Zm-1.19,1.24c-.9,1.25-1.23,2.64-.98,4.17.03.21.22.35.43.32.16-.02.29-.15.32-.31l.75-3.95c.17-.87,0-.95-.52-.23Zm43.78,6.82c.39.08.77-.16.86-.55.05-.22-.01-.45-.16-.62l-1.26-1.44c-.21-.24-.55-.32-.85-.21l-4.92,1.85c-.38.14-.64.49-.66.89l-.25,3.69c-.05.76.12.82.51.17,2.13-3.52,1.82-4.92,6.73-3.78Zm-.7,8.09l-.26,3.61c-.03.33.12.48.45.44l1.48-.15c.41-.04.56-.26.43-.65l-1.08-3.37c-.08-.28-.37-.44-.64-.36-.22.06-.37.25-.38.48Zm153.57.41c0-.14-.11-.26-.26-.26h-.38c-.14,0-.26.11-.26.25h0s-.22,21.08-.22,21.08c0,.14.11.26.26.26h.38c.14,0,.26-.11.26-.25h0s.22-21.08.22-21.08Zm-69.85.7l-1.27.37c-.11.03-.17.15-.14.26l.03.09c.51,1.73,1.24,3.05,1.63,2.93,0,0,0,0,0,0l.25-.07c.39-.12.29-1.62-.21-3.34l-.03-.1c-.03-.11-.15-.17-.26-.14Zm-85.99,5.17c.24-.04.42-.15.55-.34.21-.31.14-.39-.21-.26-1.41.53-2.81-.47-4.2-2.98-.37-.66-.51-.61-.43.14.23,2.25,1.09,4.65,2.6,7.19.36.6.81.91,1.34.94.35,0,.65-.27.66-.62,0-.06,0-.11-.02-.17l-.77-3.18c-.08-.31.11-.63.43-.71.02,0,.04,0,.05-.01Zm134.77,5.57c-.17-.65-.57-1.02-1.18-1.13-.1-.01-.19.06-.2.16,0,.04,0,.09.03.12,2.11,2.99,4.42,5.81,6.92,8.46.21.22.38.47.52.75.43.85.6,1.75.49,2.68-.11.95.1,1.03.61.22l1.98-3.11c.58-.9,1.78-1.17,2.68-.59.03.02.07.04.1.07l1.95,1.42c.37.27.65.2.84-.23.52-1.15.48-2.26-.12-3.33-.18-.32-.45-.52-.82-.61-2.31-.52-4.24.02-6.66-1.32-.39-.22-.56-.55-.53-.99l.75-9.21c0-.07-.05-.13-.12-.14-.06,0-.11.03-.13.08-1.03,2.48-2.84,8.31-6.44,7.36-.33-.08-.58-.33-.67-.66Zm-157.19,5.96l.9.05c.09,0,.16-.07.17-.16l.02-.23c.17-3.11.03-5.65-.3-5.67,0,0,0,0,0,0h-.02c-.34,0-.74,2.5-.91,5.6v.23c-.02.09.06.17.15.18,0,0,0,0,0,0Zm.49,11.34l.54-5.94c0-.08-.05-.14-.13-.15,0,0,0,0,0,0l-.32-.03c-.37-.02-.79,1.28-.94,2.9l-.03.3c-.15,1.63.03,2.99.41,3.02,0,0,0,0,0,0l.32.03c.08,0,.14-.05.15-.13h0Zm172.87,15.45c.35,0,.67-2.81.72-6.29.05-3.48-.19-6.3-.54-6.31-.35,0-.67,2.81-.72,6.29-.05,3.48.19,6.3.54,6.31Zm-20.13-.74c1.99.95,2.6,2.41,1.84,4.38-.11.31-.02.4.28.29,1.23-.47,1.83-1.31,1.78-2.52,0-.1-.04-.2-.09-.29l-1.58-2.57c-.18-.3-.12-.69.16-.91,1.23-.98,1.75-2.23,1.56-3.75-.03-.29-.29-.5-.58-.47-.13.01-.25.07-.34.17l-3.41,3.69c-.47.51-.44,1.3.07,1.77.09.09.2.16.31.21Zm-91.18.65c.73-.53,1.04-1.2.94-2.01.71-1.16.67-2.19-.11-3.1-.2-.24-.56-.27-.81-.06-.09.08-.15.18-.18.29-.75,2.85-1.79,5.65-3.11,8.42-1.29,2.72-.94,5.68,2.17,6.51.59.16,1.2-.19,1.36-.78.04-.16.05-.32.02-.48-.32-1.71-.28-3.46.13-5.26.07-.32.08-.64.03-.96l-.44-2.57Zm6.22,3.81c-2.12,3.58,1.98,4.76,3.95,6.03.19.13.3.08.32-.15l.21-2.07c.04-.45-.29-.84-.73-.88-.02,0-.05,0-.07,0h-1.29c-.27,0-.46-.12-.57-.36l-1.22-2.55c-.19-.37-.39-.38-.6-.02Zm89.24,6.62c.17-.12-.16-.91-.75-1.76,0,0,0,0,0,0-.59-.86-1.2-1.45-1.38-1.33-.17.12.16.91.75,1.76,0,0,0,0,0,0,.59.86,1.2,1.45,1.38,1.33Zm-129.67,13.49c-.03.2.1.38.29.42.02,0,.04,0,.06,0h1.97c.2-.01.36-.18.35-.38,0-.01,0-.03,0-.04l-.99-6.1c-.03-.2-.22-.33-.41-.3-.15.03-.27.14-.3.3l-.97,6.1Zm13.91,3.14l.96.99c.16.17.43.17.6.01l.08-.07c2.24-2.16,3.73-4.26,3.33-4.68,0,0,0,0,0,0l-.1-.1c-.42-.39-2.55,1.02-4.78,3.17l-.08.07c-.17.16-.18.44-.01.61,0,0,0,0,0,0Zm-11.06,1.79l-1.04,3c-.04.1.01.22.12.26,0,0,0,0,0,0l.09.03c.74.25,1.58-.25,1.88-1.13l.07-.21c.3-.87-.05-1.78-.78-2.04l-.09-.03c-.1-.03-.21.02-.25.12Zm186.58.54c-.1-.14-.3-.17-.45-.07l-11.07,8.13c-.14.1-.17.3-.07.45l.25.34c.1.14.3.17.45.07l11.07-8.13c.14-.1.17-.3.07-.45l-.25-.34Zm-44.22,3.66c.41.14.95-.34,1.2-1.07,0,0,0,0,0,0,.25-.73.12-1.44-.3-1.58h0c-.41-.14-.95.34-1.2,1.07,0,0,0,0,0,0-.25.73-.12,1.44.3,1.58h0Zm-136.95,3.19l-1.55-.06c-.13,0-.23.09-.24.22,0,0,0,0,0,0v.14c-.15,3.5.14,6.36.63,6.38,0,0,0,0,0,0h.22c.5.01,1.01-2.81,1.15-6.3v-.14c0-.13-.09-.23-.22-.24,0,0,0,0,0,0Zm163.55,6.91c-.74.67-1.37,1.43-1.89,2.28-.15.23-.09.54.14.7.23.15.54.09.7-.15l2.7-3.97c.1-.15.06-.36-.09-.46-.12-.08-.27-.08-.38,0-.26.19-.45.43-.57.72-.14.33-.34.62-.61.87Zm-55.23,6.54c.49-.35.43-1.27-.13-2.05h0c-.56-.78-1.41-1.13-1.9-.78,0,0,0,0,0,0-.49.35-.43,1.27.13,2.05h0c.56.78,1.41,1.13,1.9.78h0Zm-107.99,5.92c3.4.19,3.14,3.89,3.14,6.12-.01.61.47,1.11,1.08,1.12.46,0,.87-.27,1.04-.69.65-1.59.34-2.86-.94-3.83-.33-.24-.53-.61-.57-1.01l-1-9.77c-.02-.1-.13-.17-.23-.14-.07.02-.13.07-.14.14-.29,2.57-1.26,4.84-2.91,6.82-.27.32-.23.8.09,1.07.12.1.28.16.44.17Zm117.44-8.04c-.74,1.31-1.85,1.87-3.32,1.67-.37-.05-.55.11-.54.48.02.37.17.64.44.82.29.19.67.22,1.14.09,1.41-.37,2.44-1.26,3.09-2.65.1-.23,0-.49-.23-.59-.21-.09-.46-.01-.58.18Zm-6.47,2.5l.32-1.38c.06-.26-.1-.53-.37-.59-.16-.04-.33.01-.45.13l-.93.94c-.24.24-.24.63,0,.87h0s.34.34.34.34c.25.25.67.25.92,0,.08-.08.14-.19.17-.31Zm-60.4,7.73l1.13,2.14c.25.47.5.48.76.01.35-.62.3-1.17-.15-1.66-1.11-1.21-1.41-2.46-.91-3.73.11-.28.1-.55-.05-.82-.69-1.27-1.77-1.92-3.23-1.97-.87-.03-1.6.65-1.64,1.53-.01.37.1.73.33,1.02.85,1.11,1.87,2.02,3.05,2.73.31.19.54.44.71.75Zm93.96-.52c6.22.42,3.24-2.75,6.88-4.25.17-.07.18-.16.04-.27-.09-.07-.2-.07-.35-.02-2.51.88-4.76,2.24-6.73,4.09-.29.27-.24.42.16.45Zm-148.09.59c.38-.4.28-1.11-.23-1.59h0c-.51-.48-1.22-.54-1.6-.14,0,0,0,0,0,0-.38.4-.28,1.11.23,1.59h0c.51.48,1.22.54,1.6.14,0,0,0,0,0,0Zm147.07-.11l-7.4,5.74s-.01.04,0,.05h0c.56.74,2.66.07,4.68-1.5h0s.16-.12.16-.12c2.02-1.56,3.19-3.43,2.62-4.16,0,0,0,0,0,0h0s-.04-.03-.05-.01c0,0,0,0,0,0Zm-25.51.8l-.19,1.27c-.06.42.12.64.55.67.5.03.85-.15,1.05-.53.16-.31.16-.63,0-.98-.18-.39-.47-.65-.87-.77-.22-.07-.46.06-.53.28,0,.02-.01.04-.01.06Zm-230.69,1.88c-.14-.24-.44-.32-.68-.18l-.22.13c-.24.14-.32.44-.18.68l4.42,7.63c.14.24.44.32.68.18l.23-.13c.24-.14.32-.44.18-.68l-4.42-7.63Zm142.75,2.5c-.18,1.35-.97,1.95-2.36,1.78-.35-.04-.67.21-.71.56-.01.09,0,.18.02.26l.74,2.56c.15.51.68.8,1.19.66.13-.04.25-.1.35-.19,1.89-1.59,2.41-3.5,1.56-5.73-.08-.21-.32-.32-.53-.24-.14.05-.24.18-.26.34Zm-14.25.74l-1.55,3.53c-.05.1,0,.22.1.27,0,0,0,0,.01,0l.04.02c.89.39,1.94-.03,2.34-.94l.27-.61c.4-.91,0-1.97-.9-2.36h0s-.05-.02-.05-.02c-.1-.04-.22,0-.26.11Zm68.43,4.74c.68-.97.74-1.99.17-3.04-.11-.2-.36-.28-.57-.17-.13.07-.22.21-.22.36l-.03,2.64c0,.2.16.36.36.36.11,0,.22-.06.29-.15Zm48.11-.2c.47-.51.79-1.24.94-2.18.03-.2-.05-.31-.26-.33-.99-.07-1.78.29-2.39,1.09-.39.47-.33,1.17.14,1.57.47.39,1.17.33,1.57-.15Zm-12.06,1.32c.21.32.48.57.79.74.37.2.52.09.46-.32-.13-.95-.47-1.86-1.02-2.73-.24-.35-.71-.43-1.06-.19-.27.19-.39.53-.29.85.39,1.06.77,1.61,1.12,1.65Zm-134.18-1.44c.85,2.11.37,4.25,1.1,6.01.18.44.69.65,1.12.46.2-.08.35-.23.45-.42l.33-.69c.09-.19.07-.42-.06-.59-1.06-1.42-1.84-2.98-2.35-4.68-.02-.07-.06-.11-.13-.14-.11-.03-.21-.07-.31-.1-.06-.02-.13.02-.15.08,0,.02,0,.05,0,.07Zm135.39,9.74c.46.41.66.31.6-.31-.08-.86.12-1.67.61-2.42.13-.2.29-.38.48-.52,1.63-1.24,3-2.71,4.13-4.42.08-.15.03-.34-.12-.42-.1-.06-.22-.05-.32.01-1.27.97-2.7,1.47-4.27,1.52-.3,0-.46.16-.48.47-.07,1.06-.64,1.68-1.73,1.87-.81.14-1.35.9-1.21,1.71.06.33.22.63.47.85l1.84,1.66Zm-90.72,3.76l-1.85-4.28c-.05-.12-.18-.17-.3-.12-.1.04-.15.14-.14.24l.56,4.15c.05.39.26.65.62.79.63.25,1.01.11,1.14-.41.03-.12.02-.25-.03-.37Zm38.68,7.09c-.17.28.06.48.71.6.61.11,1.19-.29,1.3-.9,0-.01,0-.03,0-.04.4-2.81,0-5.49-1.18-8.05-.05-.13-.2-.19-.32-.14-.12.05-.19.18-.15.31.62,2.6-.98,6.2-.34,7.76.07.16.06.31-.03.46Zm-17.29-6.19c.38.15.86-.18,1.07-.74.22-.55.09-1.12-.28-1.27h0c-.38-.15-.86.18-1.07.74-.22.55-.09,1.12.28,1.27h0Zm-133.85,7.13c1.27.19,1.85-.46,1.72-1.97-.02-.26-.07-.51-.15-.76-.74-2.29.02-4,2.29-5.13.39-.19.37-.36-.04-.49-4.25-1.37-4.44,4.85-4.58,7.4-.03.46.3.87.76.95Zm206.6-6.79l-1.78-.12c-.44-.03-.83.29-.88.73-.19,1.7-.83,3.22-1.92,4.56-.03.03-.03.06,0,.09.07.07.14.14.21.2.21.22.41.21.6-.03,1.14-1.46,2.53-2.62,4.17-3.48.51-.27.7-.9.44-1.4-.17-.32-.48-.52-.84-.55Zm-101.18,7.85c.43-.06.69-.7.59-1.44h0c-.1-.73-.53-1.28-.96-1.22-.43.06-.69.7-.59,1.44h0c.1.73.53,1.28.96,1.22h0Zm-104.07,5.63l2.2,1.43c.22.15.53.1.68-.13.12-.18.11-.41-.02-.58l-4.09-5.32c-.25-.33-.73-.4-1.07-.14-.02.01-.03.03-.05.04-1.85,1.7-2.31,3.8-1.39,6.29.07.21.2.24.38.11l2.16-1.65c.39-.3.79-.32,1.2-.05Zm13.52,1.78c-.43-.48-1.36-.34-2.07.3h0c-.71.64-.95,1.55-.52,2.03.43.48,1.36.34,2.07-.3,0,0,0,0,0,0,.71-.64.95-1.55.52-2.03Zm6.32,10.2c.39.07.94-1.17,1.25-2.79t0,0c.3-1.61.24-2.98-.15-3.05h0c-.39-.07-.94,1.17-1.25,2.79h0c-.3,1.61-.24,2.98.15,3.05,0,0,0,0,0,0Zm81.28-2.38c-.97.95-1.52,1.95-1.66,3.01-.07.68.42,1.29,1.1,1.36.57.06,1.1-.28,1.3-.81.42-1.26.5-2.54.25-3.83-.09-.47-.33-.56-.71-.27-.19.15-.29.33-.28.54Z"/>
    <path class="cls-15" d="m240.91,8.4c-.15.41-.54.67-.97.64-2.08-.1-2.46-3.11-3.46-4.49-.17-.23-.39-.35-.67-.38l-2.06-.2c-.34-.05-.59-.36-.54-.71.04-.28.26-.51.55-.54,2.07-.15,3.68.4,4.82,1.66.24.26.53.44.86.54,1.65.49,2.14,1.65,1.47,3.48Z"/>
    <path class="cls-13" d="m203.56,9.34c.19.11.26.35.16.54l-2.13,3.9c-.55,1.01-1.4,1.6-1.91,1.33,0,0,0,0,0,0h0c-.5-.28-.46-1.32.09-2.33,0,0,0,0,0,0l2.12-3.89c.11-.19.35-.26.54-.16l1.13.61Z"/>
    <path class="cls-15" d="m194.03,35.26l1.42,4.34c.2.4.27.77.22,1.12-.08.57-.61.97-1.19.89-.05,0-.1-.02-.15-.03l-4.41-1.31c-.42-.75-.19-1.3.69-1.63.3-.11.41-.32.32-.63-.67-2.39-1.9-2.93-3.69-1.64-.9-1.33-.47-2.36,1.3-3.09.73-.31,1.18-1.04,1.13-1.82-.3-4.3-1.32-6.93,1.7-10.61.21-.25.32-.55.32-.88l.11-6.72c0-.25.21-.46.46-.46.11,0,.23.04.31.12l3.48,3.09c.54.48.45.68-.27.61-.63-.06-1.15.12-1.56.55-.24.25-.39.55-.45.9l-.58,3.26c-.06.36-.25.67-.52.9-3.67,3.03-.53,9.36,1.36,13.04Z"/>
    <path class="cls-15" d="m245.82,16.62c-.89.03-1.82-.81-2.81-2.52-.22-.4-.08-.92.32-1.14.32-.19.73-.13.99.13.59.6,1.27.92,2.04.97.71.06,1.13.68.93,1.39-.18.64-.81,1.14-1.47,1.17Z"/>
    <ellipse class="cls-13" cx="218.77" cy="16.17" rx="1.03" ry="1.67" transform="translate(1.8 48.49) rotate(-12.7)"/>
    <path class="cls-13" d="m81.62,19.68c-.04.06-.11.09-.18.06h-.02c-.9-.45-1.21-1.66-.7-2.7l.12-.25c.51-1.05,1.66-1.54,2.56-1.09,0,0,0,0,0,0h.02c.07.05.1.13.06.2,0,0,0,0,0,0l-1.87,3.78Z"/>
    <path class="cls-15" d="m251.17,24.37c-.28.24-.69.21-.93-.07l-.11-.14c-2.03-2.36-3.19-4.68-2.61-5.19l.12-.11c.6-.49,2.72,1.01,4.74,3.36l.12.13c.24.27.21.69-.06.93,0,0,0,0,0,0l-1.26,1.08Z"/>
    <ellipse class="cls-15" cx="282.73" cy="25.87" rx="1.43" ry="1.08" transform="translate(141.94 272.42) rotate(-65.5)"/>
    <path class="cls-13" d="m195.45,39.6l-1.42-4.34c1.26-.73,1.91-1.8,1.95-3.23.01-.33-.05-.65-.19-.96-.62-1.4-.98-2.86-1.09-4.37-.03-.41.25-.76.65-.83.66-.11,1.15.04,1.48.47.59.76.41,4.19,1.02,5.71.95,2.35,3.44,3.43,2.93,7.15-.12.9-.35.93-.68.09l-.89-2.29c-.11-.29-.41-.46-.71-.4-1.72.33-2.74,1.33-3.05,3Z"/>
    <path class="cls-15" d="m57.98,34.78c-.31-2.41-.69-4.56-1.13-6.46-.07-.31.12-.61.43-.69.03,0,.07-.01.11-.01.95-.04,1.86-.32,2.73-.83.69-.39,1.56-.14,1.95.55.26.47.24,1.05-.06,1.49-.72,1.04-2.19,5.32-2.65,5.64-.36.25-.81.36-1.34.34-.02,0-.04-.01-.04-.03Z"/>
    <path class="cls-13" d="m106.72,38c-.02,3.34,1.74,7.74-3.57,8.05-.21.01-.4-.15-.42-.36,0-.05,0-.09.02-.13l1.49-5.13c.14-.45-.03-.94-.42-1.22-1.74-1.23-1.88-2.77-.43-4.6.17-.22.27-.49.27-.77v-1.98c0-.39.3-.72.69-.76.38-.04.67.12.88.47.24.4.58.66,1.03.79l3.5.99c.29.08.53.28.66.55,1.23,2.51-1.43,3.06-3.15,3.43-.37.07-.55.3-.55.67Z"/>
    <rect class="cls-13" x="267.72" y="39.13" width="13.88" height=".84" rx=".27" ry=".27" transform="translate(85.43 242.52) rotate(-55.2)"/>
    <path class="cls-13" d="m189.92,40.27c-.92,1.89-.74,3.59.53,5.08-.61,1.06-.8,2.23-.58,3.5l-.59-.97c-.07-.11-.18-.19-.3-.24l-1.79-.62c-.27-.09-.42-.39-.32-.67.01-.04.04-.08.06-.12,2.25-3.38,2.35-6.67.31-9.86,1.79-1.29,3.02-.75,3.69,1.64.09.31-.02.52-.32.63-.88.33-1.11.88-.69,1.63Z"/>
    <path class="cls-15" d="m189.87,48.85c-.22-1.27-.03-2.44.58-3.5,5.3,1.82,6.65-.86,11.17-2.63.37-.15.69-.07.94.24,2.19,2.64,2.33,5.47.44,8.5-.69,1.11-.39,2.55.67,3.21,0,0,0,0,.01,0,.31.19.47.55.49,1.08.04,1.02-.76,1.88-1.78,1.92-.67.03-1.3-.31-1.65-.89-1.35-2.25.23-6.53.4-9.19.02-.34-.22-.64-.56-.69-2.64-.37-7.01,1.08-6.52,4.52.05.37-.06.68-.34.93l-2.54,2.27c-.09.1-.24.1-.34,0-.08-.07-.1-.18-.05-.28.75-1.93.44-3.77-.92-5.51Z"/>
    <path class="cls-15" d="m224.7,51.35c-.21,1.02-.81,1.7-1.79,2.04-.83-.78-1.7-1.54-2.59-2.29-.56-.47-1.06-.7-1.5-.67-.7.04-1.15.53-1.36,1.47-.05.23-.28.38-.51.33-.19-.04-.33-.21-.34-.41-.05-1.76.72-3.06,2.3-3.91.22-.12.49-.05.63.15l1.42,2.01c.22.31.6.45.96.35,1.17-.29,2.09.02,2.78.93Z"/>
    <rect class="cls-13" x="254.32" y="56.38" width="17.36" height=".84" rx=".41" ry=".41" transform="translate(69.82 244.09) rotate(-56.3)"/>
    <path class="cls-13" d="m224.7,51.35c1.09,1.22,1.7,2.65,1.85,4.29.03.36-.13.53-.5.51-1.67-.09-2.72-1.01-3.14-2.76.98-.34,1.58-1.02,1.79-2.04Z"/>
    <path class="cls-13" d="m85.23,54.2c-1.96.41-5.66.66-7.75.39-.26-.03-.27-.1-.02-.21l5.15-2.25c.25-.11.49-.09.72.07l2.01,1.43c.39.27.36.46-.11.57Z"/>
    <path class="cls-16" d="m194.2,67.85l-.54.54-1.74-2.72c-.2-.31-.47-.54-.82-.68-1.69-.69-3.3-.54-4.84.43-.29.18-.37.56-.19.84.07.11.17.19.28.24l1.08.47c.39.17.57.47.54.89l-.56,7.53-.5-.08c0-.91-.35-1.59-1.04-2.04-.27-.17-.42-.42-.45-.73-.18-1.98-1.7-4.26-.39-5.9.21-.26.3-.55.29-.88l-.42-9.83c-.01-.33-.12-.61-.33-.85-.63-.74-.81-1.58-.52-2.53.07-.24.33-.38.58-.3.15.05.27.17.31.32.43,1.59,1.43,2.52,2.99,2.78.51.08.59.31.24.69-4.29,4.62.93,6.89,4.69,7.49.3.04.51.31.51.61-.01,1.37.26,2.6.83,3.71Z"/>
    <path class="cls-15" d="m220.01,58.52c-.11.37-.49.57-.86.46-.16-.05-.3-.15-.39-.29-.91-1.43-1.43-3.02-1.54-4.75-.03-.38.09-.43.36-.16l2.61,2.6c.25.25.32.55.21.88l-.39,1.26Z"/>
    <path class="cls-13" d="m197.41,58.06c-1.79-.35-2.88.13-3.25,1.42-3.14-1.24-2.06-1.71,3.25-1.42Z"/>
    <path class="cls-16" d="m226.01,69.14l-.38.49c-.22.28-.63.33-.91.11-.12-.1-.21-.24-.24-.39-.66-3.68-.81-7.4-.46-11.16.02-.26.25-.45.51-.42.04,0,.07.01.11.02.39.13.56.5.5,1.12-.32,3.26.03,6.25,1.06,8.98.17.45.1.87-.19,1.25Z"/>
    <path class="cls-16" d="m197.41,58.06c1.7.06,3.35.2,2.69,2.54-.08.28-.26.38-.54.31l-5.4-1.43c.37-1.29,1.46-1.77,3.25-1.42Z"/>
    <rect class="cls-13" x="229.1" y="58.77" width="1.06" height="7.02" rx=".26" ry=".26" transform="translate(3.77 137.09) rotate(-33.5)"/>
    <path class="cls-13" d="m219.03,62.13c.08-.11.23-.14.35-.06.04.02.06.06.08.09.52,1.09.67,2.2.45,3.32-.07.29-.35.47-.64.41-.14-.03-.27-.12-.35-.25-.67-1.2-.64-2.37.11-3.51Z"/>
    <path class="cls-13" d="m178.47,64.66c.04.19-.07.34-.32.43-.39.14-.5.02-.32-.35l.95-2c.12-.28.45-.42.74-.29s.42.45.29.74c-.22.61-.67,1.1-1.34,1.48Z"/>
    <path class="cls-15" d="m193.66,68.39l.54-.54c1.15,1.73,2.61,2.24,4.36,1.55.37-.14.59-.4.67-.79l.56-2.68c.01-.07.03-.11.05-.1.09.03.17.05.26.08.02,0,.03.05.03.12.01,3.24-2.37,5.74-3.65,8.63-.21.46-.37.44-.49-.05-.68-2.79-.18-3.93-2.33-6.22Z"/>
    <ellipse class="cls-15" cx="143.51" cy="69.66" rx=".78" ry="2.19" transform="translate(-7.24 17.48) rotate(-6.8)"/>
    <path class="cls-15" d="m253.04,71.91c-.1-.05-.14-.17-.09-.27,0,0,0,0,0,0l.21-.43c.85-1.74,1.86-2.99,2.25-2.79,0,0,0,0,0,0l.14.07c.39.19.02,1.75-.83,3.49l-.21.43c-.05.1-.17.14-.27.09,0,0,0,0,0,0l-1.2-.59Z"/>
    <path class="cls-15" d="m186.91,75.31l.5.08-1.77,4.43c-.08.22-.33.34-.55.26-.13-.05-.23-.16-.27-.3l-.46-1.75c-.12-.43.13-.88.57-1,0,0,0,0,.01,0,.95-.25,1.61-.82,1.97-1.72Z"/>
    <path class="cls-16" d="m82.87,253.85h-.42c-.4-.77-.44-1.47-.11-2.11.32-.61.08-1.36-.53-1.67-.16-.09-.35-.13-.53-.14l-7.79-.28c-.54-.02-.63-.24-.27-.65l66.3-75.58c.41-.48.43-1.18.05-1.68l-73.23-95.47c-.28-.37-.19-.55.27-.55l57.89.02c.83,0,1.6.38,2.1,1.04l42.84,56.69c.25.33.5.34.77.03l49.83-56.86c.65-.73,1.46-1.1,2.44-1.09l20.08.17c1.03,0,1.21.4.53,1.18l-61.95,70.75c-.31.35-.32.87-.04,1.23,25.07,32.48,49.44,65.65,74.77,98.02,3.03,3.87-1.61,7.69-3.87,10.41-.29.35-.54.33-.76-.06-.37-.65-.4-1.29-.09-1.94.15-.3.38-.5.69-.61,1.68-.59,2.63-1.87,2.85-3.86.05-.48-.3-.91-.78-.96-.03,0-.06,0-.08,0l-53.63-.04c-.37,0-.67-.15-.89-.44l-48.16-62.29c-.14-.18-.28-.19-.43-.02l-54.41,61.98c-.43.49-1.05.77-1.7.78-3.37,0-12.61-1.94-11.74,4Zm122.76-23.72c.26.33.65.52,1.07.52l14.8.02c.33,0,.6-.27.6-.6,0-.13-.04-.25-.12-.35-34.15-45.14-69.31-89.68-102.96-135.25-.22-.31-.52-.45-.89-.44l-15.97.36c-.35,0-.42.15-.2.43l103.67,135.31Z"/>
    <ellipse class="cls-13" cx="166.31" cy="90.76" rx="1.58" ry=".82" transform="translate(58.39 246.48) rotate(-83.9)"/>
    <path class="cls-15" d="m237.85,92.76s.09-.09.14-.12c.89-.6,1.17-.23.86,1.11-.05.21-.1.42-.16.63-.31,1.11-.39,2.25-.24,3.42.23,1.77-.03,1.84-.77.22-1.01-2.19-1.65-3.17.17-5.26Z"/>
    <ellipse class="cls-15" cx="70.32" cy="96.03" rx="2.69" ry="1" transform="translate(-46.97 75.8) rotate(-44)"/>
    <path class="cls-12" d="m205.63,230.13L101.96,94.82c-.22-.28-.15-.42.2-.43l15.97-.36c.37-.01.67.13.89.44,33.65,45.57,68.81,90.11,102.96,135.25.2.26.14.63-.12.83-.1.08-.23.12-.36.12l-14.8-.02c-.42,0-.81-.19-1.07-.52Zm-89.82-122.55c.45-.38.37-1.22-.19-1.87h0c-.55-.65-1.37-.87-1.82-.49h0c-.45.38-.37,1.22.19,1.87t0,0c.55.65,1.37.87,1.82.49,0,0,0,0,0,0Zm3.44-.08c-.16.11-.2.34-.09.5.01.02.03.04.05.06l1.4,1.34c.45.43.75.35.89-.26l.19-.88c.07-.29-.02-.52-.26-.69-.75-.52-1.47-.54-2.18-.07Zm19.88,29.31c0,.25.21.44.46.44.21,0,.38-.15.43-.36.27-1.07.04-2.38-.69-3.91-.05-.11-.18-.16-.29-.11-.09.04-.14.13-.13.22l.22,3.72Z"/>
    <path class="cls-13" d="m173.27,97.56c0-.08.06-.14.14-.14,0,0,0,0,.01,0h.1c.49.03.86,1.35.81,2.96v.22c-.05,1.61-.48,2.91-.98,2.9h-.1c-.08,0-.14-.06-.14-.14,0,0,0,0,0-.01l.16-5.79Z"/>
    <path class="cls-13" d="m180.97,106.86c.11-1.09.73-2.5,2.13-2.31.25.04.29.15.12.34l-1.86,2.13c-.3.35-.43.29-.39-.16Z"/>
    <ellipse class="cls-16" cx="114.81" cy="106.4" rx="1.07" ry="1.55" transform="translate(-41.57 99.51) rotate(-40.3)"/>
    <path class="cls-15" d="m119.25,107.5c.71-.47,1.43-.45,2.18.07.24.17.33.4.26.69l-.19.88c-.14.61-.44.69-.89.26l-1.4-1.34c-.15-.14-.15-.36-.02-.51.02-.02.04-.04.06-.05Z"/>
    <ellipse class="cls-15" cx="89.7" cy="115.39" rx=".82" ry="2.56" transform="translate(-29.67 31.06) rotate(-16.9)"/>
    <path class="cls-13" d="m168.45,117.6c.35-.07.57.07.66.42.18.7-.05,1.1-.69,1.21-.44.08-.93-.19-1.09-.6-.16-.42.06-.82.5-.91h0l.62-.12Z"/>
    <path class="cls-13" d="m82.92,136.37c-.19.22-.27.45-.26.69-2.17-.08-4-.84-5.51-2.29-.23-.22-.5-.34-.81-.35l-2.09-.11c-.26-.01-.5-.12-.68-.31-1.87-1.95-4.06-3.39-6.55-4.33-.95-.36-1.37-.78-1.37-1.77,0-.37.15-.45.46-.24l1.17.78c.31.21.64.33,1.01.38,2.48.32,4.8,1.13,6.96,2.43.21.13.34.34.36.58l.12,1.61c.04.45.43.79.88.75.11,0,.22-.04.31-.09,1.89-1.01,3.22-.61,4.01,1.21.14.33.39.6.7.78.39.22.82.31,1.29.28Z"/>
    <path class="cls-15" d="m103.92,131.04c0-.26.09-.46.26-.59.31-.23.49-.16.55.22.21,1.23.79,2.27,1.74,3.1.3.27.37.58.21.95l-.58,1.31c-.21.46-.44.48-.7.05-.97-1.57-1.47-3.25-1.48-5.04Z"/>
    <path class="cls-13" d="m139.13,136.81l-.22-3.72c-.01-.12.08-.23.2-.24.09,0,.18.04.22.13.73,1.53.96,2.84.69,3.91-.05.24-.29.4-.53.35-.2-.04-.35-.22-.36-.43Z"/>
    <path class="cls-15" d="m82.92,136.37c1.03,0,2.25-.16,3.23.29,4.86,2.22,9.92,3.93,15.19,5.13.24.05.39.29.33.53-.02.07-.05.13-.09.19-.67.81-1.96.8-2.88.23-1.47-.9-3.49-1.61-6.05-2.12-1.71-.34-5.04-1.53-9.99-3.56-.01-.24.07-.47.26-.69Z"/>
    <path class="cls-13" d="m212.4,140.04c.01-.35.2-.63.57-.85.55-.31.67-.19.36.36l-.7,1.27c-.1.14-.29.18-.43.08-.11-.07-.16-.2-.13-.32.03-.11.09-.2.17-.25.11-.07.16-.16.16-.29Z"/>
    <ellipse class="cls-13" cx="293.71" cy="142.08" rx="1.17" ry="2.9" transform="translate(-1.71 3.6) rotate(-.7)"/>
    <path class="cls-15" d="m209.87,151.1c-.18.02-.3,0-.36-.07-.42-2.21-1.4-3.29-.23-5.59.25-.49.39-.46.4.09l.19,5.57Z"/>
    <path class="cls-15" d="m83.93,150.95c-.83-.58-1.04-1.41-.63-2.5.31-.82,1.23-1.23,2.05-.92.12.04.23.1.33.17,3.05,2.07,4.12,4.86,3.19,8.36-.12.43-.28.45-.47.05-1.11-2.27-2.39-3.71-4.47-5.16Z"/>
    <path class="cls-16" d="m209.51,151.03c.06.07.18.09.36.07l-.99,6.29c-.09.53-.27.57-.54.1-1.25-2.07-.86-4.23,1.17-6.46Z"/>
    <path class="cls-13" d="m82.74,152.19c.51-.72.69-.64.52.23l-.75,3.95c-.04.21-.23.34-.44.31-.16-.03-.29-.16-.31-.32-.25-1.53.08-2.92.98-4.17Z"/>
    <path class="cls-15" d="m126.52,159.01c-4.91-1.14-4.6.26-6.73,3.78-.39.65-.56.59-.51-.17l.25-3.69c.02-.4.28-.75.66-.89l4.92-1.85c.3-.11.64-.03.85.21l1.26,1.44c.26.3.22.76-.08,1.01-.17.14-.4.2-.62.16Z"/>
    <path class="cls-15" d="m125.82,167.1c.01-.29.25-.51.54-.5.22,0,.42.16.48.38l1.08,3.37c.13.39-.02.61-.43.65l-1.48.15c-.33.04-.48-.11-.45-.44l.26-3.61Z"/>
    <rect class="cls-13" x="268.03" y="177.59" width="21.6" height=".9" rx=".26" ry=".26" transform="translate(97.88 454.99) rotate(-89.4)"/>
    <path class="cls-15" d="m209.54,168.21c.11-.03.23.03.26.14l.03.1c.5,1.72.6,3.22.21,3.34l-.25.07c-.39.12-1.12-1.19-1.63-2.92h0s-.03-.1-.03-.1c-.03-.11.03-.23.14-.26l1.27-.37Z"/>
    <path class="cls-15" d="m123.07,174.1l.77,3.18c.08.34-.13.69-.47.77-.06.01-.11.02-.17.02-.53-.03-.98-.34-1.34-.94-1.51-2.54-2.37-4.94-2.6-7.19-.08-.75.06-.8.43-.14,1.39,2.51,2.79,3.51,4.2,2.98.35-.13.42-.05.21.26-.13.19-.31.3-.55.34-.32.05-.54.35-.49.67,0,.02,0,.04.01.05Z"/>
    <path class="cls-13" d="m258.99,179.61c3.6.95,5.41-4.88,6.44-7.36.03-.07.1-.1.17-.07.05.02.09.07.08.13l-.75,9.21c-.03.44.14.77.53.99,2.42,1.34,4.35.8,6.66,1.32.37.09.64.29.82.61.6,1.07.64,2.18.12,3.33-.19.43-.47.5-.84.23l-1.95-1.42c-.86-.63-2.08-.44-2.71.42-.02.03-.05.07-.07.1l-1.98,3.11c-.51.81-.72.73-.61-.22.11-.93-.06-1.83-.49-2.68-.14-.28-.31-.53-.52-.75-2.5-2.65-4.81-5.47-6.92-8.46-.06-.08-.03-.19.05-.25.04-.02.08-.04.12-.03.61.11,1.01.48,1.18,1.13.09.33.34.58.67.66Z"/>
    <path class="cls-13" d="m101.13,184.91c-.09,0-.17-.09-.16-.18,0,0,0,0,0,0v-.23c.18-3.1.58-5.6.92-5.6h.02c.34-.01.48,2.5.31,5.61,0,.02,0,.04,0,.06l-.02.23c0,.09-.08.16-.17.16l-.9-.05Z"/>
    <path class="cls-13" d="m101.62,196.25c0,.08-.07.14-.15.13,0,0,0,0,0,0l-.32-.03c-.37-.03-.56-1.38-.41-3.01,0,0,0,0,0,0l.03-.3c.15-1.62.57-2.92.94-2.9l.32.03c.08,0,.14.07.13.15,0,0,0,0,0,0l-.54,5.94Z"/>
    <ellipse class="cls-13" cx="274.58" cy="205.4" rx="6.3" ry=".63" transform="translate(65.37 477.09) rotate(-89.2)"/>
    <path class="cls-13" d="m254.36,210.96c-.62-.3-.89-1.04-.59-1.67.05-.12.13-.22.21-.31l3.41-3.69c.2-.22.53-.23.75-.04.1.09.16.21.17.34.19,1.52-.33,2.77-1.56,3.75-.28.22-.34.61-.16.91l1.58,2.57c.05.09.08.19.09.29.05,1.21-.55,2.05-1.78,2.52-.3.11-.39.02-.28-.29.76-1.97.15-3.43-1.84-4.38Z"/>
    <path class="cls-16" d="m164.12,209.6c-.86.37-1.17,1.04-.94,2.01l.44,2.57c.05.32.04.64-.03.96-.41,1.8-.45,3.55-.13,5.26.11.6-.29,1.17-.89,1.28-.16.03-.33.02-.49-.02-3.11-.83-3.46-3.79-2.17-6.51,1.32-2.77,2.36-5.57,3.11-8.42.09-.31.4-.49.71-.41.11.03.21.09.28.18.78.91.82,1.94.11,3.1Z"/>
    <path class="cls-13" d="m164.12,209.6c.1.81-.21,1.48-.94,2.01-.23-.97.08-1.64.94-2.01Z"/>
    <path class="cls-15" d="m173.35,221.45c-1.97-1.27-6.07-2.45-3.95-6.03.21-.36.41-.35.6.02l1.22,2.55c.11.24.3.36.57.36h1.29c.44,0,.8.36.8.81,0,.02,0,.05,0,.07l-.21,2.07c-.02.23-.13.28-.32.15Z"/>
    <ellipse class="cls-13" cx="257.58" cy="220.49" rx=".38" ry="1.88" transform="translate(-79.59 184.67) rotate(-34.5)"/>
    <path class="cls-15" d="m154.91,240.06l-.29-1.46,2.29-2.18c.27-.25.33-.55.19-.89-1.57-3.68-1.73-7.41-.5-11.2.77-2.36,2.05-3.06,3.82-2.11.98.53,1.45,1.68,1.12,2.75-.26.83-.75,1.48-1.46,1.95-.33.21-.59.49-.78.83-1.36,2.35-1.42,4.77-.18,7.26.15.29.16.58.03.88-.76,1.81-1.44,5.5-4.24,4.17Z"/>
    <path class="cls-15" d="m128.97,235.53l.97-6.1c.03-.2.22-.33.41-.3.15.03.27.14.3.3l.99,6.1c.03.2-.11.38-.31.41-.01,0-.03,0-.04,0h-1.97c-.2,0-.36-.16-.36-.35,0-.02,0-.04,0-.06Z"/>
    <path class="cls-15" d="m142.88,238.67c-.17-.17-.16-.44,0-.61,0,0,0,0,0,0l.08-.07c2.23-2.15,4.36-3.56,4.78-3.17l.1.1c.41.41-1.07,2.5-3.31,4.66l-.02.02-.08.07c-.17.16-.44.16-.6-.01l-.96-.99Z"/>
    <path class="cls-13" d="m154.62,238.6l.29,1.46c-1.51,1.3-3.86,3.9-1.37,5.59.94.64,1.49.4,1.65-.73.1-.67.38-1.26.84-1.76.42-.46.64-.38.66.25.13,4.92-.7,9.65-2.49,14.19.32-1.27.05-2.08-.81-2.44-.3-.13-.49-.34-.58-.65-.25-.91-.89-1.4-1.9-1.45,1.31-3.54,1.16-6.93-.43-10.18-.14-.29-.09-.54.15-.75l3.99-3.53Z"/>
    <path class="cls-13" d="m131.82,240.46c.04-.1.15-.15.25-.12l.09.03c.73.26,1.08,1.17.78,2.04l-.07.21c-.3.88-1.14,1.38-1.88,1.13l-.09-.03c-.1-.04-.16-.15-.12-.26,0,0,0,0,0,0l1.04-3Z"/>
    <rect class="cls-13" x="305.54" y="244.9" width="14.38" height="1.06" rx=".32" ry=".32" transform="translate(-84.61 232.77) rotate(-36.3)"/>
    <ellipse class="cls-13" cx="274.63" cy="243.34" rx="1.4" ry=".79" transform="translate(-44.23 424.9) rotate(-71.2)"/>
    <path class="cls-15" d="m137.23,247.86c.13,0,.23.11.22.24,0,0,0,0,0,0v.14c-.14,3.49-.65,6.31-1.15,6.31h-.22c-.5,0-.79-2.85-.65-6.35,0-.01,0-.03,0-.04v-.14c.02-.13.12-.23.25-.22,0,0,0,0,0,0l1.55.06Z"/>
    <path class="cls-15" d="m150.91,253.06c1.01.05,1.65.54,1.9,1.45.09.31.28.52.58.65.86.36,1.13,1.17.81,2.44.59,2.65.11,4.81-1.43,6.5-.93.41-1.48,1.14-1.67,2.19-.2,1.11-.83,1.38-1.9.81-.85-2.01-.87-4.02-.08-6.01.12-.32.16-.67.11-1.01-.43-2.59.13-4.93,1.68-7.02Zm-.33,6.73c.82.33,1.56.24,2.23-.26.27-.21.31-.59.11-.86-.01-.02-.03-.04-.05-.05l-1.34-1.34c-.13-.12-.33-.12-.45,0-.04.04-.06.08-.08.13l-.64,1.92c-.06.19.04.39.22.46Z"/>
    <path class="cls-13" d="m301.39,253.9c.12-.29.31-.53.57-.72.15-.11.35-.08.46.07.08.11.09.27,0,.38l-2.7,3.97c-.15.23-.46.3-.7.15-.23-.15-.3-.46-.14-.7.52-.85,1.15-1.61,1.89-2.28.27-.25.47-.54.61-.87Z"/>
    <path class="cls-13" d="m82.45,253.85h.42l.49,3.25-.45.04c-.54-1.01-.69-2.11-.46-3.29Z"/>
    <path class="cls-12" d="m150.58,259.79c-.18-.07-.28-.27-.22-.46l.64-1.92c.05-.17.23-.26.4-.21.05.02.09.04.13.08l1.34,1.34c.24.24.23.63,0,.86-.02.02-.04.03-.05.05-.67.5-1.41.59-2.23.26Z"/>
    <path class="cls-15" d="m82.91,257.14l.45-.04.39,1.16c.1.29.12.58.05.87l-1.21,5.74c-.03.15-.12.22-.27.21-.09,0-.18-.03-.27-.06-.03-.01-.04-.04-.03-.07.83-2.55,1.13-5.16.89-7.81Z"/>
    <ellipse class="cls-15" cx="244.54" cy="259.9" rx="1.09" ry="1.74" transform="translate(-105.59 190.93) rotate(-35.6)"/>
    <path class="cls-13" d="m137.56,267.23c-.41-.02-.73-.38-.7-.8,0-.16.07-.32.17-.44,1.65-1.98,2.62-4.25,2.91-6.82.02-.1.13-.17.23-.14.07.02.13.07.14.14l1,9.77c.04.4.24.77.57,1.01,1.28.97,1.59,2.24.94,3.83-.23.56-.87.84-1.43.61-.42-.17-.7-.58-.69-1.04,0-2.23.26-5.93-3.14-6.12Z"/>
    <path class="cls-13" d="m255,259.19c.13-.21.42-.28.63-.15.2.12.27.36.18.56-.65,1.39-1.68,2.28-3.09,2.65-.47.13-.85.1-1.14-.09-.27-.18-.42-.45-.44-.82-.01-.37.17-.53.54-.48,1.47.2,2.58-.36,3.32-1.67Z"/>
    <path class="cls-13" d="m248.53,261.69c-.08.35-.43.56-.78.48-.12-.03-.22-.09-.31-.17l-.34-.34c-.24-.24-.24-.63,0-.87h0s.93-.94.93-.94c.19-.19.5-.19.69,0,.12.12.16.29.13.45l-.32,1.38Z"/>
    <path class="cls-16" d="m187.42,268.67c-1.18-.71-2.2-1.62-3.05-2.73-.53-.7-.4-1.7.29-2.23.29-.22.65-.34,1.02-.32,1.46.05,2.54.7,3.23,1.97.15.27.16.54.05.82-.5,1.27-.2,2.52.91,3.73.45.49.5,1.04.15,1.66-.26.47-.51.46-.76-.01l-1.13-2.14c-.17-.31-.4-.56-.71-.75Z"/>
    <path class="cls-13" d="m152.77,264.1c-.28,1.04-.09,1.95.57,2.74.29.35.59.36.9.03.35-.37.85-.39,1.52-.08.69.33.98,1.15.65,1.84-.07.14-.16.27-.27.38-.78.77-1.71,1.3-2.8,1.57-.29.07-.54.22-.75.44-2.33,2.53-3.38,5.53-3.13,8.99.03.34-.08.63-.32.88-1.05,1.07-1.3,2.37-.73,3.92l-4.01,2.56c-.39.25-.42.53-.07.84.92.83,2.11,1.05,3.58.68-1.08,1.09-1.42,2.65-1.01,4.67-1.81.73-3.63.66-5.45-.21,1.12-2.55.97-4.95-.44-7.2-.18-.29-.2-.6-.05-.91.27-.55.62-1.05,1.05-1.51.08-.09.13-.19.16-.31l.62-2.94c.07-.34.39-.57.74-.52l1.75.24c.47.07.69-.14.67-.61l-.22-4.41c0-.15.05-.31.15-.43l3.27-3.87c.19-.22.28-.5.26-.79l-.21-2.99c1.07.57,1.7.3,1.9-.81.19-1.05.74-1.78,1.67-2.19Zm-6.61,19.63c.68-.55.69-1.66.02-2.49s-1.76-1.05-2.44-.5h0c-.68.55-.69,1.66-.02,2.49s1.76,1.05,2.44.5t0,0Z"/>
    <path class="cls-13" d="m288.97,264.65c-3.64,1.5-.66,4.67-6.88,4.25-.4-.03-.45-.18-.16-.45,1.97-1.85,4.22-3.21,6.73-4.09.15-.05.26-.05.35.02.14.11.13.2-.04.27Z"/>
    <ellipse class="cls-13" cx="133.08" cy="268.62" rx="1" ry="1.26" transform="translate(-153.53 180.75) rotate(-46.6)"/>
    <path class="cls-13" d="m281.07,269.38s.04-.01.06,0c0,0,0,0,0,0h0c.57.73-.6,2.59-2.62,4.16,0,0,0,0,0,0l-.16.12c-2.02,1.56-4.11,2.24-4.68,1.5,0,0,0,0,0,0h0s-.01-.04,0-.05l7.4-5.74Z"/>
    <path class="cls-13" d="m255.56,270.18c.03-.23.25-.39.48-.35.02,0,.04,0,.06.01.4.12.69.38.87.77.16.35.16.67,0,.98-.2.38-.55.56-1.05.53-.43-.03-.61-.25-.55-.67l.19-1.27Z"/>
    <rect class="cls-13" x="25.91" y="271.28" width="1.26" height="9.82" rx=".5" ry=".5" transform="translate(-134.93 50.55) rotate(-30.1)"/>
    <path class="cls-13" d="m167.62,274.56c.03-.22.23-.39.45-.36.15.02.28.12.34.26.85,2.23.33,4.14-1.56,5.73-.41.34-1.01.29-1.35-.12-.09-.1-.15-.22-.19-.35l-.74-2.56c-.1-.34.09-.7.43-.8.08-.03.17-.03.26-.02,1.39.17,2.18-.43,2.36-1.78Z"/>
    <path class="cls-13" d="m153.37,275.3c.04-.1.16-.15.26-.11l.05.02c.9.39,1.3,1.45.9,2.36,0,0,0,0,0,0l-.27.61c-.4.91-1.45,1.33-2.34.94l-.04-.02c-.1-.04-.15-.16-.11-.26,0,0,0,0,0-.01l1.55-3.53Z"/>
    <path class="cls-13" d="m221.8,280.04c-.12.16-.34.19-.5.08-.09-.07-.15-.17-.15-.29l.03-2.64c0-.23.2-.42.43-.41.15,0,.29.09.36.22.57,1.05.51,2.07-.17,3.04Z"/>
    <path class="cls-15" d="m269.91,279.84c-.39.47-1.09.54-1.57.15-.47-.39-.54-1.09-.14-1.57.61-.8,1.4-1.16,2.39-1.09.21.02.29.13.26.33-.15.94-.47,1.67-.94,2.18Z"/>
    <path class="cls-13" d="m257.85,281.16c-.35-.04-.73-.59-1.12-1.65-.13-.4.1-.83.5-.95.32-.1.66.02.85.29.55.87.89,1.78,1.02,2.73.06.41-.09.52-.46.32-.31-.17-.58-.42-.79-.74Z"/>
    <path class="cls-15" d="m124.77,285.73c-.73-1.76-.25-3.9-1.1-6.01-.02-.06.02-.13.08-.15.02,0,.05,0,.07,0,.1.03.2.07.31.1.07.03.11.07.13.14.51,1.7,1.29,3.26,2.35,4.68.13.17.15.4.06.59l-.33.69c-.2.43-.72.61-1.15.41-.19-.09-.34-.25-.42-.45Z"/>
    <ellipse class="cls-15" cx="144.95" cy="282.24" rx="1.58" ry="1.92" transform="translate(-145.32 154.12) rotate(-39)"/>
    <path class="cls-13" d="m259.06,289.46l-1.84-1.66c-.61-.55-.66-1.48-.11-2.09.22-.25.52-.41.85-.47,1.09-.19,1.66-.81,1.73-1.87.02-.31.18-.46.48-.47,1.57-.05,3-.55,4.27-1.52.14-.09.34-.05.43.09.06.1.07.22.01.32-1.13,1.71-2.5,3.18-4.13,4.42-.19.14-.35.32-.48.52-.49.75-.69,1.56-.61,2.42.06.62-.14.72-.6.31Z"/>
    <path class="cls-15" d="m148.41,284.81c1.37,1.71,1.21,3.07-.5,4.08-1.47.37-2.66.15-3.58-.68-.35-.31-.32-.59.07-.84l4.01-2.56Z"/>
    <path class="cls-13" d="m168.34,293.22c.05.12.06.25.03.37-.13.52-.51.66-1.14.41-.36-.14-.57-.4-.62-.79l-.56-4.15c-.02-.13.07-.24.2-.26.1-.01.2.04.24.14l1.85,4.28Z"/>
    <path class="cls-15" d="m207.05,299.85c-.64-1.56.96-5.16.34-7.76-.04-.13.03-.27.16-.32.13-.04.26.02.31.15,1.19,2.56,1.58,5.24,1.18,8.05-.09.61-.66,1.04-1.27.95-.01,0-.03,0-.04,0-.65-.12-.88-.32-.71-.6.09-.15.1-.3.03-.46Z"/>
    <ellipse class="cls-13" cx="190.13" cy="293.12" rx="1.08" ry=".73" transform="translate(-152.28 362.59) rotate(-68.5)"/>
    <path class="cls-13" d="m55.88,301.25c-.46-.08-.79-.49-.76-.95.14-2.55.33-8.77,4.58-7.4.41.13.43.3.04.49-2.27,1.13-3.03,2.84-2.29,5.13.08.25.13.5.15.76.13,1.51-.45,2.16-1.72,1.97Z"/>
    <path class="cls-15" d="m141.45,293.35c1.82.87,3.64.94,5.45.21-1.6,2.6-2.16,5.52-1.68,8.77.05.35-.1.54-.46.55h-.35c-1.33-1-2.5-.81-3.49.6-.2.27-.18.53.06.77.6.61,1.5.97,2.69,1.08-.21,1.45-.41,2.87-.59,4.28-.36,2.84-1.84,4.53-2.82,7.14-.29.31-.46.85-.53,1.64.05-1.01-.31-1.53-1.07-1.54-1.86-.04-2.78,1.28-2.76,3.96-.57-.47-.74-1.21-.53-2.21.13-2.73.47-5.42,1-8.08.54-2.71,0-5.78,1.47-8.76.16-.33.42-.51.78-.54l1.91-.19c.29-.03.4-.18.35-.46-.43-2.42-.24-4.83.57-7.22Z"/>
    <path class="cls-13" d="m262.48,294.46c.57.04,1,.53.95,1.1-.03.36-.24.68-.55.85-1.64.86-3.03,2.02-4.17,3.48-.19.24-.39.25-.6.03-.07-.06-.14-.13-.21-.2-.03-.03-.03-.06,0-.09,1.09-1.34,1.73-2.86,1.92-4.56.05-.44.44-.76.88-.73l1.78.12Z"/>
    <path class="cls-13" d="m144.87,320.35c-.27.91-.82,1.14-1.65.69-.68-.38-.79-1.13-.34-2.24,3.42-3.45,3.01-7.05,5.25-10.19.19-.27.21-.62.05-.91-.86-1.54-2.79-4.69.15-5.47.3-.08.55-.23.76-.46.79-.84,1.05-1.82.8-2.93-.08-.35.12-.7.46-.83l1.26-.47c.31-.11.48,0,.5.33.07,1.43-.28,2.71-1.07,3.85-.19.27-.3.58-.33.91-.36,4.11-.08,9.06-3.33,12.26-1.48,1.46-2.32,3.28-2.51,5.46Z"/>
    <ellipse class="cls-13" cx="161.11" cy="300.98" rx=".78" ry="1.34" transform="translate(-40.32 25.35) rotate(-8)"/>
    <path class="cls-16" d="m144.41,302.89c.19,1.15-.05,1.97-.74,2.44-1.19-.11-2.09-.47-2.69-1.08-.24-.24-.26-.5-.06-.77.99-1.41,2.16-1.6,3.49-.59Z"/>
    <path class="cls-13" d="m214.37,321.45c-1.1.67-1.99.89-2.67.65-.23-2.14-.42-4.29-.58-6.45-.22-3.05-1.72-5-3.09-7.59-.08-.17-.12-.36-.1-.56l.5-4.42c.04-.27.29-.47.56-.43.11.01.22.07.29.15.32.35.51.81.57,1.39.59,6.09,2.1,11.84,4.52,17.26Z"/>
    <path class="cls-13" d="m56.03,307.99l-2.16,1.65c-.18.13-.31.1-.38-.11-.92-2.49-.46-4.59,1.39-6.29.32-.28.8-.26,1.08.05.01.02.03.03.04.05l4.09,5.32c.17.21.13.52-.08.69-.17.13-.41.14-.58.02l-2.2-1.43c-.41-.27-.81-.25-1.2.05Z"/>
    <ellipse class="cls-13" cx="69.46" cy="310.88" rx="1.74" ry="1.16" transform="translate(-190.18 126.33) rotate(-42)"/>
    <ellipse class="cls-14" cx="77.62" cy="317" rx="2.97" ry=".71" transform="translate(-248.28 334.41) rotate(-79.3)"/>
    <path class="cls-16" d="m139.73,318.39c-.05,1.79-.88,3.25-2.5,4.38-.39.27-.92.17-1.18-.21-.1-.14-.15-.31-.15-.48v-1.27c-.02-2.68.9-4,2.76-3.96.76.01,1.12.53,1.07,1.54Z"/>
    <path class="cls-13" d="m158.35,317.54c0-.21.09-.39.28-.54.38-.29.62-.2.71.27.25,1.29.17,2.57-.25,3.83-.23.64-.94.98-1.59.75-.54-.19-.87-.73-.81-1.3.14-1.06.69-2.06,1.66-3.01Z"/>
  </g>
</svg>