<?xml version="1.0" encoding="utf-8"?>
<!-- Generator: Adobe Illustrator 26.5.2, SVG Export Plug-In . SVG Version: 6.00 Build 0)  -->
<svg version="1.1" id="Layer_1" xmlns="http://www.w3.org/2000/svg" xmlns:xlink="http://www.w3.org/1999/xlink" x="0px" y="0px"
	 viewBox="0 0 223 223" style="enable-background:new 0 0 223 223;" xml:space="preserve">
<style type="text/css">
	.st0{fill:#1DA1F2;}
	.st1{fill-rule:evenodd;clip-rule:evenodd;fill:#FFFFFF;}
</style>
<g>
	<path class="st0" d="M172.65,223H50.35C22.54,223,0,200.46,0,172.65V50.35C0,22.54,22.54,0,50.35,0h122.29
		C200.46,0,223,22.54,223,50.35v122.29C223,200.46,200.46,223,172.65,223z"/>
	<g>
		<path class="st1" d="M129.64,176.54c-0.17,0.05-0.33,0.1-0.49,0.15c0.13-0.16,0.25-0.33,0.38-0.49l-3.17-9.59
			c-4.77,8.05-10.48,12.82-16.45,12.82c-7.35,0-14.3-7.21-19.59-18.88c-1.5-3.32-2.86-6.97-4.03-10.91
			c7.37-1.18,15.33-1.83,23.62-1.83c3.52,0,6.98,0.12,10.36,0.35l-2.72-8.23c-2.51-0.12-5.06-0.18-7.64-0.18
			c-9,0-17.64,0.73-25.65,2.06c-1.81-8.17-2.92-17.26-3.16-26.88h57.61c-0.1,4.12-0.38,8.14-0.79,12.04l7.84,2.52
			c0.55-4.7,0.9-9.56,1.02-14.56h31.55c-0.48,8.23-2.41,16.06-5.54,23.26l7.72,2.48c3.86-9.15,6-19.21,6-29.78
			c0-21.16-8.58-40.31-22.44-54.18c-13.87-13.87-33.02-22.44-54.18-22.44s-40.31,8.58-54.18,22.44
			c-13.87,13.87-22.44,33.02-22.44,54.18s8.58,40.31,22.44,54.18c13.87,13.87,33.02,22.44,54.18,22.44c7.74,0,15.22-1.15,22.26-3.29
			L129.64,176.54z M81.11,106.84c0.24-9.61,1.35-18.69,3.16-26.86c8.01,1.33,16.65,2.06,25.65,2.06s17.64-0.73,25.65-2.06
			c1.8,8.17,2.91,17.25,3.16,26.86H81.11z M165.52,70.79c7.4,10.25,12.04,22.64,12.82,36.05h-31.55
			c-0.25-10.12-1.41-19.72-3.32-28.41C151.79,76.52,159.26,73.92,165.52,70.79z M158.38,62.4c0.65,0.65,1.28,1.31,1.9,1.98
			c-5.39,2.51-11.74,4.63-18.8,6.23c-1.34-4.6-2.89-8.86-4.64-12.72c-2.25-4.97-4.84-9.29-7.69-12.83
			C140.35,48.33,150.36,54.38,158.38,62.4z M109.91,42.32c7.35,0,14.3,7.22,19.59,18.88c1.51,3.32,2.86,6.99,4.04,10.94
			c-7.38,1.18-15.33,1.83-23.63,1.83s-16.25-0.65-23.63-1.83c1.18-3.95,2.53-7.61,4.04-10.94C95.61,49.54,102.56,42.32,109.91,42.32
			z M61.44,62.4c8.03-8.03,18.04-14.07,29.23-17.34c-2.86,3.54-5.44,7.86-7.69,12.83c-1.75,3.85-3.3,8.12-4.64,12.72
			c-7.06-1.6-13.41-3.72-18.8-6.23C60.16,63.71,60.79,63.05,61.44,62.4z M54.3,70.79c6.27,3.13,13.74,5.74,22.06,7.64
			c-1.91,8.69-3.08,18.29-3.32,28.41H41.48C42.26,93.42,46.9,81.04,54.3,70.79z M54.31,150.98c-7.41-10.26-12.05-22.65-12.83-36.07
			h31.55c0.25,10.13,1.42,19.74,3.33,28.44C68.04,145.25,60.58,147.85,54.31,150.98z M61.44,159.35c-0.64-0.64-1.27-1.3-1.89-1.96
			c5.39-2.51,11.73-4.62,18.79-6.22c1.34,4.59,2.89,8.84,4.63,12.69c2.25,4.97,4.84,9.29,7.69,12.83
			C79.48,173.42,69.47,167.38,61.44,159.35z"/>
		<polygon class="st1" points="122.64,130.41 181.13,149.22 161.48,159.56 181.13,178.35 176.06,183.42 171.03,188.52 
			152.09,169.02 141.91,188.74 		"/>
	</g>
</g>
</svg>
