<?xml version="1.0" encoding="UTF-8"?>
<svg id="Layer_1" data-name="Layer 1" xmlns="http://www.w3.org/2000/svg" viewBox="0 0 223 223">
  <defs>
    <style>
      .cls-1 {
        fill: #fff;
      }
    </style>
  </defs>
  <rect x="0" y="0" width="223" height="223" rx="50.35" ry="50.35"/>
  <g>
    <path id="path841" class="cls-1" d="m132.95,88.33h-42.93c-1.82,0-3.3,1.38-3.3,3.09v40.17c0,1.71,1.48,3.09,3.3,3.09h42.93c1.82,0,3.3-1.38,3.3-3.09v-40.17c0-1.71-1.48-3.09-3.3-3.09h0Z"/>
    <path id="path843" class="cls-1" d="m83.42,41.97h-42.93c-1.82,0-3.3,1.38-3.3,3.09v40.17c0,1.71,1.48,3.09,3.3,3.09h42.93c1.82,0,3.3-1.38,3.3-3.09v-40.17c0-1.71-1.48-3.09-3.3-3.09Z"/>
    <path id="path845" class="cls-1" d="m182.51,41.97h-42.93c-1.82,0-3.3,1.38-3.3,3.09v40.17c0,1.71,1.48,3.09,3.3,3.09h42.93c1.82,0,3.3-1.38,3.3-3.09v-40.17c0-1.71-1.48-3.09-3.3-3.09Z"/>
    <path id="path847" class="cls-1" d="m83.42,134.68h-42.93c-1.82,0-3.3,1.38-3.3,3.09v40.17c0,1.71,1.48,3.09,3.3,3.09h42.93c1.82,0,3.3-1.38,3.3-3.09v-40.17c0-1.71-1.48-3.09-3.3-3.09Z"/>
    <path id="path849" class="cls-1" d="m182.51,134.68h-42.93c-1.82,0-3.3,1.38-3.3,3.09v40.17c0,1.71,1.48,3.09,3.3,3.09h42.93c1.82,0,3.3-1.38,3.3-3.09v-40.17c0-1.71-1.48-3.09-3.3-3.09Z"/>
  </g>
</svg>