<?xml version="1.0" encoding="utf-8"?>
<!-- Generator: Adobe Illustrator 27.3.1, SVG Export Plug-In . SVG Version: 6.00 Build 0)  -->
<svg version="1.1" id="Layer_1" xmlns="http://www.w3.org/2000/svg" xmlns:xlink="http://www.w3.org/1999/xlink" x="0px" y="0px"
	 viewBox="0 0 223 223" style="enable-background:new 0 0 223 223;" xml:space="preserve">
<style type="text/css">
	.st0{fill:#FFFC00;}
	.st1{fill:#FFFFFF;}
	.st2{fill:#030303;}
</style>
<path class="st0" d="M172.6,223H50.4C22.5,223,0,200.5,0,172.6L0,50.4C0,22.5,22.5,0,50.4,0l122.3,0C200.5,0,223,22.5,223,50.4
	v122.3C223,200.5,200.5,223,172.6,223z"/>
<g>
	<g>
		<g>
			<g>
				<path class="st1" d="M112.3,188.2c-0.4,0-0.8,0-1.2,0h0c-0.3,0-0.5,0-0.8,0c-9.7,0-15.9-4.4-21.9-8.6c-4.1-2.9-8.1-5.7-12.7-6.5
					c-2.3-0.4-4.5-0.6-6.7-0.6c-3.9,0-7,0.6-9.2,1c-1.4,0.3-2.5,0.5-3.4,0.5c-0.9,0-1.9-0.2-2.4-1.7c-0.4-1.3-0.7-2.6-0.9-3.8
					c-0.7-3.1-1.2-5.1-2.5-5.3c-15.3-2.4-19.7-5.6-20.7-7.9c-0.1-0.3-0.2-0.7-0.2-1c0-0.9,0.6-1.7,1.4-1.8c23.6-3.9,34.2-28,34.6-29
					c0,0,0-0.1,0-0.1c1.4-2.9,1.7-5.5,0.8-7.5c-1.6-3.8-6.9-5.5-10.4-6.6c-0.9-0.3-1.7-0.5-2.3-0.8c-7-2.8-7.6-5.6-7.3-7
					c0.5-2.5,3.8-4.2,6.4-4.2c0.7,0,1.4,0.1,1.9,0.4c3.1,1.5,6,2.2,8.4,2.2c3.4,0,4.8-1.4,5-1.6c-0.1-1.6-0.2-3.3-0.3-5
					c-0.7-11.2-1.6-25,2-32.9c10.6-23.7,33-25.6,39.6-25.6c0.2,0,2.9,0,2.9,0l0.4,0c6.6,0,29.1,1.8,39.7,25.6
					c3.5,7.9,2.7,21.8,2,32.9l0,0.5c-0.1,1.6-0.2,3.1-0.3,4.5c0.2,0.2,1.5,1.5,4.6,1.6h0c2.3-0.1,5-0.8,7.9-2.2
					c0.9-0.4,1.8-0.5,2.5-0.5c1,0,2,0.2,2.8,0.5l0.1,0c2.4,0.8,3.9,2.5,4,4.2c0,1.6-1.2,4.1-7.3,6.5c-0.6,0.2-1.4,0.5-2.3,0.8
					c-3.5,1.1-8.8,2.8-10.4,6.6c-0.9,2.1-0.6,4.6,0.8,7.5c0,0,0,0.1,0,0.1c0.4,1,11,25.1,34.6,29c0.9,0.1,1.5,0.9,1.4,1.8
					c0,0.3-0.1,0.7-0.2,1c-1,2.3-5.4,5.5-20.7,7.9c-1.3,0.2-1.7,1.8-2.5,5.3c-0.3,1.2-0.5,2.5-0.9,3.8c-0.3,1.1-1,1.6-2.2,1.6h-0.2
					c-0.8,0-2-0.1-3.4-0.4c-2.6-0.5-5.5-1-9.2-1c-2.2,0-4.4,0.2-6.7,0.6c-4.6,0.8-8.5,3.5-12.7,6.5
					C128.2,183.8,122,188.2,112.3,188.2z"/>
				<path class="st2" d="M112.9,36.6c6.3,0,27.9,1.7,38.1,24.6c3.4,7.5,2.5,21.2,1.8,32.1c-0.1,1.7-0.2,3.4-0.3,5l0,0.7l0.5,0.5
					c0.2,0.2,1.9,2,5.8,2.2l0.1,0l0.1,0c2.6-0.1,5.5-0.9,8.6-2.4c0.5-0.2,1.1-0.3,1.7-0.3c0.7,0,1.5,0.1,2.2,0.4l0.1,0
					c1.6,0.6,2.8,1.7,2.8,2.6c0,0.6-0.4,2.6-6.2,4.9c-0.6,0.2-1.3,0.5-2.2,0.7c-3.8,1.2-9.5,3-11.5,7.6c-1.1,2.6-0.8,5.6,0.9,9
					c0.7,1.6,11.5,26,35.9,30.1c0,0.1,0,0.2-0.1,0.4c-0.4,1-3,4.3-19.4,6.9c-2.6,0.4-3.2,3.3-3.9,6.6c-0.3,1.2-0.5,2.4-0.9,3.6
					c-0.1,0.4-0.1,0.4-0.5,0.4c-0.1,0-0.1,0-0.2,0l0,0c-0.7,0-1.8-0.2-3.1-0.4c-2.3-0.5-5.5-1-9.6-1c-2.3,0-4.6,0.2-6.9,0.6
					c-5,0.8-9.1,3.7-13.4,6.8c-5.8,4.1-11.8,8.3-20.9,8.3c-0.4,0-0.8,0-1.2,0l-0.1,0l-0.1,0c-0.2,0-0.4,0-0.7,0
					c-9.1,0-15.1-4.2-20.9-8.3c-4.3-3-8.4-5.9-13.4-6.8c-2.3-0.4-4.7-0.6-6.9-0.6c-4.1,0-7.2,0.6-9.6,1.1c-1.3,0.3-2.4,0.5-3.1,0.5
					c-0.6,0-0.6,0-0.7-0.5c-0.4-1.2-0.6-2.5-0.9-3.7c-0.7-3.3-1.4-6.2-3.9-6.6c-16.4-2.5-19-5.9-19.4-6.9c-0.1-0.2-0.1-0.3-0.1-0.4
					c24.4-4,35.2-28.4,35.9-30.1c1.7-3.4,2-6.4,0.9-9c-1.9-4.5-7.7-6.4-11.5-7.6c-0.9-0.3-1.6-0.5-2.2-0.7c-4.9-1.9-6.4-3.9-6.2-5.1
					c0.3-1.4,2.6-2.8,4.7-2.8c0.5,0,0.9,0.1,1.2,0.2c3.4,1.6,6.4,2.4,9.1,2.4c4.2,0,6.1-2,6.3-2.2l0.5-0.5l0-0.7
					c-0.1-1.6-0.2-3.3-0.3-5c-0.7-11-1.5-24.6,1.8-32.1c10.2-22.8,31.7-24.5,38.1-24.5c0.2,0,2.9,0,2.9,0
					C112.6,36.6,112.8,36.6,112.9,36.6 M112.9,33.1L112.9,33.1c-0.2,0-0.3,0-0.4,0l0,0c0,0-2.7,0-2.9,0c-6.9,0-30.2,1.9-41.2,26.6
					c-3.7,8.3-2.8,22.4-2.1,33.7c0.1,1.3,0.2,2.7,0.2,4.1c-0.6,0.3-1.6,0.7-3.2,0.7c-2.2,0-4.8-0.7-7.7-2.1
					c-0.8-0.4-1.7-0.5-2.6-0.5c-3.4,0-7.5,2.2-8.1,5.6c-0.5,2.4,0.6,5.9,8.3,9c0.7,0.3,1.5,0.5,2.4,0.8c3.2,1,8,2.5,9.3,5.6
					c0.7,1.6,0.4,3.7-0.8,6.1c0,0.1-0.1,0.1-0.1,0.2c-0.4,1-10.6,24.3-33.3,28c-1.7,0.3-3,1.8-2.9,3.6c0,0.5,0.2,1,0.4,1.6
					c1.7,4,8.9,6.9,21.9,8.9c0.4,0.6,0.9,2.7,1.2,3.9c0.3,1.3,0.6,2.5,1,3.9c0.4,1.3,1.4,2.9,4,2.9c1.1,0,2.3-0.2,3.8-0.5
					c2.2-0.4,5.2-1,8.9-1c2.1,0,4.2,0.2,6.4,0.5c4.2,0.7,7.8,3.2,11.9,6.2c5.9,4.2,12.7,9,22.9,9c0.3,0,0.6,0,0.8,0
					c0.3,0,0.8,0,1.2,0c10.2,0,17-4.8,22.9-9c4.2-2.9,7.7-5.5,12-6.2c2.2-0.4,4.3-0.5,6.4-0.5c3.6,0,6.4,0.5,8.9,0.9
					c1.6,0.3,2.8,0.5,3.8,0.5l0.1,0h0.1c1.9,0,3.3-1,3.9-2.9c0.4-1.3,0.7-2.6,1-3.9c0.3-1.3,0.7-3.3,1.2-3.9
					c13.1-2,20.2-4.9,21.9-8.9c0.2-0.5,0.3-1,0.4-1.6c0.1-1.8-1.1-3.3-2.9-3.6c-22.7-3.7-32.9-27-33.3-28c0-0.1,0-0.1-0.1-0.2
					c-1.2-2.5-1.5-4.5-0.8-6.1c1.3-3.1,6.1-4.6,9.3-5.6c0.9-0.3,1.7-0.6,2.4-0.8c5.7-2.2,8.5-5,8.4-8.2c0-2.5-2-4.7-5.1-5.8l0,0
					c-1-0.4-2.3-0.7-3.5-0.7c-0.8,0-2,0.1-3.2,0.6c-2.7,1.3-5.1,1.9-7.2,2c-1.4-0.1-2.3-0.4-2.8-0.7c0.1-1.1,0.1-2.3,0.2-3.6l0-0.5
					c0.7-11.3,1.6-25.4-2.1-33.7C143.2,35,119.8,33.1,112.9,33.1L112.9,33.1z"/>
			</g>
		</g>
	</g>
</g>
</svg>
