<?xml version="1.0" encoding="utf-8"?>
<!-- Generator: Adobe Illustrator 27.3.1, SVG Export Plug-In . SVG Version: 6.00 Build 0)  -->
<svg version="1.1" id="Layer_1" xmlns="http://www.w3.org/2000/svg" xmlns:xlink="http://www.w3.org/1999/xlink" x="0px" y="0px"
	 viewBox="0 0 223 223" style="enable-background:new 0 0 223 223;" xml:space="preserve">
<style type="text/css">
	.st0{fill:#1ED760;}
	.st1{fill-rule:evenodd;clip-rule:evenodd;fill:#FFFFFF;}
	.st2{fill-rule:evenodd;clip-rule:evenodd;fill:#1ED760;}
</style>
<path class="st0" d="M172.6,223H50.4C22.5,223,0,200.5,0,172.6L0,50.4C0,22.5,22.5,0,50.4,0l122.3,0C200.5,0,223,22.5,223,50.4
	v122.3C223,200.5,200.5,223,172.6,223z"/>
<g>
	
		<ellipse transform="matrix(4.246057e-02 -0.9991 0.9991 4.246057e-02 -4.6337 218.1651)" class="st1" cx="111.5" cy="111.5" rx="79.7" ry="79.7"/>
	<path class="st2" d="M66.2,92.8c-3.7,0.8-7.4-1.5-8.3-5.3c-0.8-3.7,1.5-7.4,5.3-8.3c17.9-4,35.1-5.4,52.1-3.8
		c17.1,1.6,33.8,6.3,50.6,14.5c3.5,1.7,4.9,5.8,3.2,9.3c-1.7,3.5-5.8,4.9-9.3,3.2C144.5,95,129.4,90.8,114,89.3
		C98.5,87.9,82.7,89.2,66.2,92.8L66.2,92.8z M68.8,117c14.4-3.6,28.1-4.9,41.6-3.4c13.4,1.5,26.6,5.6,40.1,13c2.7,1.5,6,0.5,7.5-2.2
		c1.5-2.7,0.5-6-2.2-7.5c-14.8-8.1-29.4-12.7-44.2-14.3c-14.8-1.6-29.8-0.2-45.4,3.7c-2.9,0.7-4.7,3.7-4,6.7
		C62.9,115.9,65.9,117.7,68.8,117L68.8,117z M70,140.2c-2.5,0.5-4.9-1.1-5.4-3.7c-0.5-2.5,1.1-4.9,3.7-5.4c15.1-3,28.7-4.1,41.5-2.5
		c13,1.5,25,5.7,36.7,13.3c2.1,1.4,2.7,4.3,1.4,6.4c-1.4,2.1-4.3,2.7-6.4,1.4c-10.4-6.8-21.1-10.5-32.7-11.9
		C96.9,136.4,84.2,137.4,70,140.2z"/>
</g>
</svg>
