<?xml version="1.0" encoding="utf-8"?>
<!-- Generator: Adobe Illustrator 27.3.1, SVG Export Plug-In . SVG Version: 6.00 Build 0)  -->
<svg version="1.1" id="Layer_1" xmlns="http://www.w3.org/2000/svg" xmlns:xlink="http://www.w3.org/1999/xlink" x="0px" y="0px"
	 viewBox="0 0 223 223" style="enable-background:new 0 0 223 223;" xml:space="preserve">
<style type="text/css">
	.st0{fill:#A544FF;}
	.st1{fill:#FFFFFF;}
</style>
<path class="st0" d="M172.6,223H50.4C22.5,223,0,200.5,0,172.6L0,50.4C0,22.5,22.5,0,50.4,0l122.3,0C200.5,0,223,22.5,223,50.4
	v122.3C223,200.5,200.5,223,172.6,223z"/>
<g>
	<g>
		<g>
			<polygon class="st1" points="166.6,114.3 144.5,136.3 122.5,136.3 103.2,155.5 103.2,136.3 78.5,136.3 78.5,53.7 166.6,53.7 			
				"/>
			<g>
				<g id="Layer_1-2_2_">
					<path d="M73,42.7L45.4,70.2v99.1h33v27.5l27.5-27.5h22l49.6-49.6V42.7H73z M166.6,114.3l-22,22h-22l-19.3,19.3v-19.3H78.5V53.7
						h88.1V114.3z"/>
					<rect x="139" y="73" width="11" height="33"/>
					<rect x="108.7" y="73" width="11" height="33"/>
				</g>
			</g>
		</g>
	</g>
</g>
</svg>
