<?xml version="1.0" encoding="utf-8"?>
<!-- Generator: Adobe Illustrator 26.5.2, SVG Export Plug-In . SVG Version: 6.00 Build 0)  -->
<svg version="1.1" id="Layer_1" xmlns="http://www.w3.org/2000/svg" xmlns:xlink="http://www.w3.org/1999/xlink" x="0px" y="0px"
	 viewBox="0 0 223 223" style="enable-background:new 0 0 223 223;" xml:space="preserve">
<style type="text/css">
	.st0{fill:#40E85E;}
	.st1{fill-rule:evenodd;clip-rule:evenodd;fill:#FFFFFF;}
</style>
<g>
	<path class="st0" d="M172.64,222.99H50.36C22.55,222.99,0,200.46,0,172.65V50.36C0,22.55,22.55,0.01,50.36,0.01h122.29
		c27.81,0,50.35,22.54,50.35,50.35v122.29C222.99,200.44,200.45,222.99,172.64,222.99z"/>
	<g>
		<g>
			<path class="st1" d="M112.65,32.4c-43.18,0-78.18,35-78.18,78.19c0,14.77,4.1,28.59,11.22,40.37l-14.11,41.95l43.29-13.86
				c11.2,6.19,24.08,9.73,37.79,9.73c43.19,0,78.19-35.01,78.19-78.19C190.85,67.4,155.85,32.4,112.65,32.4z M112.65,175.68
				c-13.22,0-25.53-3.97-35.81-10.76l-25.01,8.01l8.13-24.17c-7.79-10.73-12.4-23.92-12.4-38.16c0-35.89,29.2-65.09,65.09-65.09
				s65.09,29.2,65.09,65.09C177.74,146.47,148.55,175.68,112.65,175.68z M149.32,128.35c-1.96-1.07-11.59-6.27-13.39-7
				c-1.81-0.73-3.12-1.11-4.53,0.83s-5.4,6.3-6.61,7.58c-1.22,1.29-2.38,1.41-4.35,0.33c-1.96-1.07-8.31-3.42-15.68-10.5
				c-5.73-5.51-9.49-12.2-10.58-14.24s-0.01-3.08,1.03-4.04c0.93-0.86,2.08-2.26,3.13-3.39c1.04-1.13,1.41-1.95,2.12-3.25
				c0.71-1.31,0.43-2.49-0.04-3.5c-0.46-1.01-4.09-10.99-5.6-15.04s-3.2-3.45-4.36-3.5c-1.16-0.04-2.49-0.26-3.82-0.31
				s-3.51,0.37-5.42,2.3c-1.9,1.93-7.24,6.56-7.61,16.39c-0.37,9.82,6.43,19.58,7.37,20.94c0.95,1.37,12.98,22.66,32.96,31.41
				c19.99,8.75,20.1,6.08,23.76,5.89c3.67-0.19,11.99-4.39,13.83-8.98c1.84-4.6,1.99-8.59,1.52-9.44
				C152.58,129.97,151.27,129.43,149.32,128.35z"/>
		</g>
	</g>
</g>
</svg>
