<?xml version="1.0" encoding="utf-8"?>
<!-- Generator: Adobe Illustrator 27.3.1, SVG Export Plug-In . SVG Version: 6.00 Build 0)  -->
<svg version="1.1" id="Layer_1" xmlns="http://www.w3.org/2000/svg" xmlns:xlink="http://www.w3.org/1999/xlink" x="0px" y="0px"
	 viewBox="0 0 223 223" style="enable-background:new 0 0 223 223;" xml:space="preserve">
<style type="text/css">
	.st0{fill:#FFFFFF;}
	.st1{fill-rule:evenodd;clip-rule:evenodd;fill:#00F7EF;}
	.st2{fill-rule:evenodd;clip-rule:evenodd;}
	.st3{fill-rule:evenodd;clip-rule:evenodd;fill:#FF004F;}
</style>
<g>
	<path class="st0" d="M172.6,223H50.4C22.5,223,0,200.5,0,172.6L0,50.4C0,22.5,22.5,0,50.4,0l122.3,0C200.5,0,223,22.5,223,50.4
		v122.3C223,200.5,200.5,223,172.6,223z"/>
	<g>
		<path class="st1" d="M57.4,174.4c-33.9-29.4-12-94.9,40.2-86.7v6.1C53.6,91.7,34.2,144.2,57.4,174.4z M152.5,60.7
			c5.4,4.3,12.7,7.4,22.9,8v5.9C164.2,72.6,157,67,152.5,60.7z M138.4,29.4c0,2.2,0.3,4.6,0.6,6.7h-20.8v103.5c0,4.8-0.5,9-1.5,12.7
			c-8.5,18.7-32.4,16.2-39,3.4c9.9,6.2,26.1,4.5,32.7-10.1c1-3.7,1.5-8,1.5-12.7V29.4H138.4z"/>
		<path class="st2" d="M144.7,36.1v0.1c0,2.4,0.7,37,37.1,39.2c0,32.2,0,0,0,26.8c-2.7,0.2-23.9-1.4-37.1-13.1l0,52.1
			c0.3,23.6-12.8,46.7-37.4,51.4c-6.9,1.3-13.1,1.5-23.5-0.8c-60-17.9-40.1-106.9,20.2-97.4c0,28.7,0,0,0,28.7
			c-24.9-3.7-33.2,17-26.6,31.9c6,13.5,30.8,16.4,39.4-2.6c1-3.7,1.5-8,1.5-12.7V36.1H144.7z"/>
		<path class="st3" d="M97.6,93.8c2.1,0.1,4.2,0.3,6.3,0.6c0,28.7,0,0,0,28.7c-24.9-3.7-33.2,17-26.6,31.9c0.1,0.3,0.3,0.5,0.4,0.8
			c-3-1.9-5.3-4.4-6.7-7.5c-6.6-14.8,1.7-35.5,26.6-31.9C97.6,90.1,97.6,112,97.6,93.8z M175.5,74.7c2,0.4,4.1,0.6,6.3,0.8
			c0,32.2,0,0,0,26.8c-2.7,0.2-23.9-1.4-37.1-13.1l0,52.1c0.3,23.6-12.8,46.7-37.4,51.4c-6.9,1.3-13.1,1.5-23.5-0.8
			c-11.7-3.5-20.4-9.7-26.3-17.4c5.3,4.6,11.9,8.3,20,10.7c10.4,2.3,16.6,2.1,23.5,0.8c24.6-4.7,37.7-27.8,37.4-51.4l0-52.1
			c13.2,11.8,34.4,13.3,37.1,13.1C175.5,70.7,175.5,96.7,175.5,74.7z M144.7,36.1v0.1c0,1.4,0.3,13.9,7.8,24.5
			c-9.1-7.3-12.3-17.8-13.5-24.6H144.7z"/>
	</g>
</g>
</svg>
