<?xml version="1.0" encoding="utf-8"?>
<!-- Generator: Adobe Illustrator 27.3.1, SVG Export Plug-In . SVG Version: 6.00 Build 0)  -->
<svg version="1.1" id="Layer_1" xmlns="http://www.w3.org/2000/svg" xmlns:xlink="http://www.w3.org/1999/xlink" x="0px" y="0px"
	 viewBox="0 0 223 223" style="enable-background:new 0 0 223 223;" xml:space="preserve">
<style type="text/css">
	.st0{fill:#ED3034;}
	.st1{fill:#FFFFFF;}
</style>
<path class="st0" d="M172.6,223H50.4C22.5,223,0,200.5,0,172.6L0,50.4C0,22.5,22.5,0,50.4,0l122.3,0C200.5,0,223,22.5,223,50.4
	v122.3C223,200.5,200.5,223,172.6,223z"/>
<g>
	<path class="st1" d="M116.4,34.9c-47.6,0-71.5,34.1-71.5,62.5c0,17.2,6.5,32.5,20.5,38.2c2.3,0.9,4.3,0,5-2.5c0.5-1.8,1.6-6.2,2-8
		c0.7-2.5,0.4-3.4-1.4-5.6c-4-4.8-6.6-10.9-6.6-19.6c0-25.3,18.9-47.9,49.3-47.9c26.9,0,41.6,16.4,41.6,38.4
		c0,28.9-12.8,53.2-31.7,53.2c-10.5,0-18.3-8.7-15.8-19.3c3-12.7,8.8-26.4,8.8-35.5c0-8.2-4.4-15-13.5-15
		c-10.7,0-19.3,11.1-19.3,25.9c0,9.4,3.2,15.8,3.2,15.8s-11,46.4-12.9,54.5c-3.8,16.2-0.6,36-0.3,38c0.2,1.2,1.7,1.5,2.4,0.6
		c1-1.3,13.7-17,18.1-32.8c1.2-4.5,7-27.5,7-27.5c3.5,6.6,13.6,12.5,24.4,12.5c32.2,0,54-29.3,54-68.6
		C179.8,62.6,154.7,34.9,116.4,34.9z"/>
</g>
</svg>
