<?xml version="1.0" encoding="utf-8"?>
<!-- Generator: Adobe Illustrator 26.5.2, SVG Export Plug-In . SVG Version: 6.00 Build 0)  -->
<svg version="1.1" id="Layer_1" xmlns="http://www.w3.org/2000/svg" xmlns:xlink="http://www.w3.org/1999/xlink" x="0px" y="0px"
	 viewBox="0 0 223 223" style="enable-background:new 0 0 223 223;" xml:space="preserve">
<style type="text/css">
	.st0{fill:#FFFFFF;}
	.st1{fill:#FF0000;}
</style>
<g>
	<path class="st0" d="M172.65,223H50.36c-27.81,0-50.35-22.55-50.35-50.36V50.35C0.01,22.54,22.55,0,50.36,0h122.29
		c27.81,0,50.35,22.54,50.35,50.35v122.29C223.01,200.45,200.47,223,172.65,223z"/>
	<g id="g7433_00000055681566387034703240000007907630892086424999_">
		<path id="path7429_00000145755308760229672680000007060201551235801532_" class="st1" d="M190.73,71.7
			c-1.91-7.1-7.51-12.69-14.6-14.6c-12.96-3.55-64.82-3.55-64.82-3.55s-51.86,0-64.82,3.41c-6.96,1.91-12.69,7.64-14.6,14.74
			c-3.41,12.96-3.41,39.85-3.41,39.85s0,27.02,3.41,39.85c1.91,7.1,7.51,12.69,14.6,14.6c13.1,3.55,64.82,3.55,64.82,3.55
			s51.86,0,64.82-3.41c7.1-1.91,12.69-7.51,14.6-14.6c3.41-12.96,3.41-39.85,3.41-39.85S194.26,84.66,190.73,71.7L190.73,71.7z"/>
		<path id="polygon7431_00000073684194273670995570000015930489014840105877_" class="st0" d="M94.79,86.71v49.67l43.12-24.84
			L94.79,86.71z"/>
	</g>
</g>
</svg>
